<svg width="18" height="18" viewBox="0 0 18 18" fill="none" xmlns="http://www.w3.org/2000/svg">
<path d="M16.9162 10.2465L15.4912 5.11951C15.0736 3.61751 14.1658 2.29823 12.9122 1.37136C11.6587 0.444502 10.1313 -0.0367482 8.57283 0.00411186C7.01438 0.0449719 5.51429 0.605597 4.31103 1.59687C3.10777 2.58815 2.27039 3.95319 1.93199 5.47501L0.828736 10.4363C0.706873 10.9845 0.70969 11.553 0.836981 12.1C0.964271 12.647 1.21278 13.1584 1.56417 13.5964C1.91556 14.0345 2.36085 14.388 2.86717 14.631C3.37349 14.8739 3.9279 15 4.48949 15H5.32499C5.49712 15.8477 5.95703 16.6099 6.62679 17.1573C7.29655 17.7047 8.13497 18.0038 8.99999 18.0038C9.865 18.0038 10.7034 17.7047 11.3732 17.1573C12.0429 16.6099 12.5028 15.8477 12.675 15H13.3035C13.8816 15.0001 14.4519 14.8664 14.9698 14.6096C15.4877 14.3527 15.9392 13.9796 16.2891 13.5194C16.639 13.0592 16.8777 12.5243 16.9866 11.9565C17.0955 11.3888 17.0717 10.8035 16.917 10.2465H16.9162ZM8.99999 16.5C8.53629 16.4981 8.08451 16.3529 7.70646 16.0844C7.32841 15.8159 7.04255 15.4372 6.88799 15H11.112C10.9574 15.4372 10.6716 15.8159 10.2935 16.0844C9.91546 16.3529 9.46368 16.4981 8.99999 16.5ZM15.0945 12.6113C14.8855 12.8885 14.6147 13.1132 14.3037 13.2675C13.9927 13.4218 13.6499 13.5014 13.3027 13.5H4.48949C4.15257 13.5 3.81998 13.4242 3.51624 13.2784C3.21251 13.1327 2.94539 12.9205 2.73461 12.6577C2.52382 12.3949 2.37476 12.088 2.29841 11.7599C2.22206 11.4317 2.22038 11.0906 2.29349 10.7618L3.39599 5.79976C3.66175 4.60442 4.31947 3.53221 5.26458 2.7536C6.20969 1.97498 7.38795 1.53464 8.61207 1.50257C9.83618 1.4705 11.0359 1.84855 12.0205 2.57661C13.005 3.30468 13.718 4.34097 14.046 5.52076L15.471 10.6478C15.5651 10.9818 15.5801 11.3332 15.5148 11.674C15.4494 12.0148 15.3055 12.3358 15.0945 12.6113Z" fill="black"/>
</svg>
