<svg width="12" height="12" viewBox="0 0 12 12" fill="none" xmlns="http://www.w3.org/2000/svg">
<g clip-path="url(#clip0_109_5)">
<path d="M11.3033 7.06066L10.2426 6C10.0551 5.81246 9.80073 5.70711 9.53552 5.70711C9.2703 5.70711 9.01595 5.81246 8.82841 6C8.64087 6.18754 8.38652 6.29289 8.1213 6.29289C7.85609 6.29289 7.60173 6.18754 7.4142 6L5.99998 4.58579C5.81245 4.39825 5.70709 4.1439 5.70709 3.87868C5.70709 3.61346 5.81245 3.35911 5.99998 3.17157C6.18752 2.98404 6.29288 2.72968 6.29288 2.46447C6.29288 2.19925 6.18752 1.9449 5.99998 1.75736L4.93932 0.6967C4.65802 0.415395 4.27649 0.25736 3.87866 0.25736C3.48084 0.25736 3.09931 0.415395 2.818 0.6967L1.40379 2.11091C0.935681 2.58014 0.672795 3.21588 0.672795 3.87868C0.672795 4.54148 0.935681 5.17722 1.40379 5.64645L6.35354 10.5962C6.82277 11.0643 7.4585 11.3272 8.1213 11.3272C8.7841 11.3272 9.41984 11.0643 9.88907 10.5962L11.3033 9.18198C11.5846 8.90068 11.7426 8.51915 11.7426 8.12132C11.7426 7.7235 11.5846 7.34197 11.3033 7.06066ZM9.18196 9.88909C8.90066 10.1704 8.51913 10.3284 8.1213 10.3284C7.72348 10.3284 7.34195 10.1704 7.06064 9.88909L2.1109 4.93934C1.82959 4.65804 1.67156 4.27651 1.67156 3.87868C1.67156 3.48086 1.82959 3.09932 2.1109 2.81802L3.52511 1.40381C3.61888 1.31004 3.74605 1.25736 3.87866 1.25736C4.01127 1.25736 4.13845 1.31004 4.23222 1.40381L5.29288 2.46447C4.9178 2.83954 4.70709 3.34825 4.70709 3.87868C4.70709 4.40911 4.9178 4.91782 5.29288 5.29289L6.70709 6.70711C7.08216 7.08218 7.59087 7.29289 8.1213 7.29289C8.65174 7.29289 9.16044 7.08218 9.53552 6.70711L10.5962 7.76777C10.6899 7.86154 10.7426 7.98871 10.7426 8.12132C10.7426 8.25393 10.6899 8.38111 10.5962 8.47487L9.18196 9.88909Z" fill="black"/>
</g>
<defs>
<clipPath id="clip0_109_5">
<rect width="12" height="12" fill="white"/>
</clipPath>
</defs>
</svg>
