<svg width="118" height="117" viewBox="0 0 118 117" fill="none" xmlns="http://www.w3.org/2000/svg">
<path d="M21.137 43.8586C17.9589 57.8424 59.9105 73.7332 85.018 73.7332C88.1961 68.6482 91.0518 56.889 90.2596 50.2149C61.3384 62.2919 41.1594 51.4861 40.206 43.8586C41.1594 34.9597 61.4996 34.0063 65.6312 35.9132C69.7628 37.8201 68.4915 41.9517 65.6312 43.2229C62.7709 44.4942 57.368 44.4942 48.787 43.8586C58.0036 52.4396 89.4674 48.308 88.1961 39.727C86.9249 31.1459 58.9571 29.8747 56.7324 29.8747C54.5077 29.8747 24.3152 29.8747 21.137 43.8586Z" fill="white"/>
<path d="M71.1907 93.7556C76.7843 89.9418 80.937 83.6915 82.3142 81.043C27.9042 76.4665 14.2374 54.9602 14.9373 44.812C16.2086 26.3787 47.0367 22.2471 58.1603 22.2471C69.2838 22.2471 89.9419 25.1074 95.3447 35.9132C100.748 46.7189 95.6625 67.6947 93.7556 73.7332C101.892 74.2417 111.765 73.5214 115.685 73.0976C125.537 22.2471 85.4924 2.69764e-06 59.1137 0C32.735 -2.69764e-06 1.27128 17.7976 0 58.7959C12.9669 79.6446 52.8633 90.7893 71.1907 93.7556Z" fill="white"/>
<path d="M89.624 81.3608C87.0815 87.2086 82.6321 92.4844 80.7252 94.3912C84.8568 95.0269 99.7941 95.9803 104.879 95.0269C108.184 91.2131 111.765 83.6915 112.825 80.7252C108.057 81.3608 95.7685 81.5727 89.624 81.3608Z" fill="white"/>
<path d="M1.90687 70.8729C14.8314 82.3143 52.3124 104.434 98.8406 101.383C80.0895 122.677 16.8442 129.033 1.90687 70.8729Z" fill="white"/>
</svg>
