<svg width="179" height="174" viewBox="0 0 179 174" fill="none" xmlns="http://www.w3.org/2000/svg">
<path fill-rule="evenodd" clip-rule="evenodd" d="M188.633 29.3242C187.939 30.3414 187.091 31.0351 186.034 31.4386C185.294 31.7215 184.779 31.8135 184.396 31.8088C184.624 31.6153 184.851 31.4199 185.066 31.2091C186.333 29.9682 187.38 28.4076 188.284 26.4266C188.957 24.9554 189.393 23.5402 189.732 22.1925C190.499 24.7588 190.148 27.0992 188.633 29.3242ZM183.33 31.1064C182.757 29.6296 183.116 27.3064 183.728 25.6584C184.163 24.4832 184.771 23.5136 185.562 22.7389C186.3 22.016 187.199 21.4625 188.265 21.0687C188.69 20.9114 188.909 20.9638 189.067 21.0352C189.238 21.1124 189.372 21.2866 189.485 21.5093C189.097 23.1625 188.652 24.6655 187.922 26.2616C186.827 28.6572 185.504 30.3929 183.846 31.7095C183.517 31.5605 183.401 31.2886 183.33 31.1064ZM186.726 39.2005C186.899 39.0891 187.435 38.8481 188.931 38.7315C189.165 38.7139 189.341 38.6938 189.488 38.676C189.834 38.6361 189.927 38.6246 190.396 38.723C190.947 38.838 191.781 39.3315 192.523 39.9827C192.573 40.0267 192.624 40.0657 192.651 40.0945C192.396 40.192 192.123 40.2239 191.709 40.2029C191.43 40.1897 191.117 40.1832 190.789 40.1776C189.433 40.1509 187.576 40.1154 186.878 39.3711C186.804 39.2915 186.758 39.23 186.726 39.2005ZM182.426 42.5466L182.517 42.771C182.727 43.2786 182.759 43.7696 182.794 44.2891C182.811 44.5575 182.829 44.8155 182.866 45.0647C182.895 45.2621 182.905 45.471 182.899 45.6749C182.03 44.1353 181.607 42.4154 181.275 40.8754C181.24 40.7089 181.216 40.5693 181.201 40.4525C181.782 40.9618 182.136 41.8304 182.426 42.5466ZM180.472 93.8342C180.648 93.7049 180.807 93.5692 180.952 93.4274C181.649 92.7447 182.007 91.932 182.283 91.1035C182.887 91.7297 183.612 92.2568 184.302 92.7337C184.976 93.1989 185.614 93.6387 186.049 94.1152C186.639 94.7619 187.17 95.4704 187.631 96.2175L187.664 96.2785C188.107 97.0035 188.486 97.7645 188.783 98.544C188.805 98.6021 188.821 98.6536 188.832 98.6972L179.13 99.7028C177.521 99.8705 175.856 100.044 174.33 99.6149C171.948 98.9446 170.126 96.6768 169.97 94.2096C170.155 94.3217 170.323 94.453 170.522 94.5458C173.069 95.7263 177.969 95.6729 180.472 93.8342ZM169.028 90.4883C168.873 89.4534 169.28 88.2936 170.306 86.8361C172.791 83.3055 176.313 81.1341 179.725 81.0269L180.049 81.0197C180.863 81.0048 181.787 80.9901 182.572 80.4147L182.743 80.2825L182.819 80.2173C183.74 81.0982 183.651 82.7057 183.291 83.8213C183.001 84.726 182.64 85.5868 182.258 86.4991C181.928 87.2842 181.602 88.0978 181.314 88.9331C181.286 88.9854 181.272 89.0403 181.256 89.0974C181.21 89.2353 181.155 89.3668 181.112 89.5053L180.998 89.8824C180.654 91.0219 180.389 91.9279 179.528 92.5509C177.579 93.984 173.242 94.0518 171.192 93.1021C170.015 92.5559 169.186 91.5536 169.028 90.4883ZM186.085 82.0021C185.714 82.4639 185.428 83.0329 185.253 83.624C184.598 85.834 184.542 88.1847 185.088 90.4207C185.189 90.8314 185.334 91.2729 185.568 91.6818C185.446 91.5967 185.327 91.5062 185.206 91.422C184.257 90.7674 183.307 90.0859 182.887 89.2582C183.141 88.5465 183.42 87.8434 183.726 87.1153C184.104 86.2121 184.496 85.2777 184.807 84.309C185.014 83.6669 185.141 82.9319 185.136 82.1931C185.436 82.061 185.758 82.0074 186.085 82.0021ZM187.157 91.1756C186.879 90.922 186.737 90.4612 186.634 90.0426C186.535 89.631 186.457 89.2137 186.402 88.795C186.744 88.68 187.017 88.4363 187.188 88.282L187.255 88.2229L187.274 88.3176L187.656 90.3328C187.784 91.0001 187.709 91.1842 187.649 91.2928C187.588 91.3497 187.329 91.3317 187.157 91.1756ZM188.915 84.508C189.28 87.0403 189.965 89.5209 190.949 91.8791L191.016 92.0357C191.243 92.5785 191.459 93.0914 191.496 93.5913C191.529 94.0488 191.365 94.4817 191.096 94.6398C190.945 94.7292 190.715 94.7756 190.472 94.8253C190.129 94.8943 189.787 94.903 189.445 94.9141C189.202 94.9222 188.952 94.9355 188.698 94.96C188.252 94.2857 187.767 93.6372 187.225 93.042C187.159 92.9703 187.07 92.9092 187 92.8397C187.591 92.9945 188.254 92.9117 188.743 92.4499C189.497 91.6445 189.314 90.5308 189.22 90.0354L188.838 88.0198C188.62 86.8716 188.022 86.5558 187.561 86.4928C187.025 86.4186 186.616 86.6819 186.317 86.9316C186.35 85.9675 186.503 85.0065 186.78 84.0757C187.015 83.2827 187.543 82.5094 188.023 82.5898C188.442 82.6615 188.741 83.3058 188.915 84.508ZM158.291 107.461C157.085 106.381 155.69 105.437 154.014 105.053C153.933 105.034 153.851 105.039 153.772 105.046C153.66 103.134 153.259 101.363 152.926 100.092C152.527 98.5633 151.924 96.8756 150.494 95.95C149.503 95.3081 148.34 95.181 147.2 95.1731C147.174 95.135 147.159 95.0935 147.127 95.0603C146.882 94.8055 146.659 94.5213 146.436 94.2357C148.426 93.7822 150.212 93.4946 151.747 94.1488C152.935 94.6554 153.907 95.737 154.763 96.6892C155.359 97.3526 155.976 98.0375 156.399 98.7914C156.8 99.5085 157.056 100.343 157.253 101.065C157.821 103.149 158.161 105.298 158.291 107.461ZM159.419 110.891C159.795 111.306 160.184 111.737 160.394 112.202C160.636 112.738 160.671 113.387 160.673 113.95C160.687 117.155 159.608 120.645 157.467 124.323C156.923 125.259 156.176 126.451 155.205 127.402L155.185 127.422C153.765 128.8 151.879 129.665 150.011 130.357C150.09 130.252 150.175 130.146 150.254 130.041C150.763 129.36 151.341 128.589 151.62 127.64C151.931 126.576 151.732 125.52 151.144 124.776C151.844 123.691 152.495 122.528 153.072 121.254C153.435 120.457 153.823 119.518 153.845 118.478C153.868 117.478 153.542 116.544 153.22 115.762C152.813 114.77 152.327 113.816 151.81 112.885C153.28 110.807 153.709 108.441 153.791 106.773L153.789 106.644C155.924 107.188 157.606 108.886 159.419 110.891ZM144.985 134.037C142.929 136.241 140.558 138.111 137.93 139.595C136.981 140.132 135.967 140.615 134.98 140.525C134.123 140.445 133.281 139.913 132.56 139.422C130.541 138.046 128.65 136.464 126.936 134.721C125.907 133.676 124.853 132.432 124.274 131.002C125.182 131.222 126.136 131.252 127.042 130.828C127.126 130.79 127.2 130.737 127.262 130.676L127.272 130.658C127.312 130.679 127.346 130.707 127.387 130.727C128.298 131.151 129.286 131.211 130.132 131.213C133.074 131.22 135.971 130.488 138.582 129.185C139.665 130.885 141.865 131.829 143.833 131.35C144.94 131.082 145.859 130.446 146.533 129.922C147.093 129.492 147.631 129.022 148.149 128.515C148.85 127.828 149.499 127.049 150.122 126.228C150.193 126.546 150.178 126.898 150.091 127.194C149.895 127.865 149.43 128.485 148.98 129.085C147.724 130.759 146.426 132.49 144.985 134.037ZM118.67 125.152C118.014 123.656 118.231 121.847 118.422 120.25C118.601 118.743 118.9 117.29 119.188 115.883C119.27 115.483 119.349 115.068 119.43 114.66C120.443 117.11 121.911 119.368 123.783 121.253C123.947 121.417 124.167 121.489 124.384 121.479C124.334 122.293 124.3 123.108 124.303 123.925C124.308 126.391 124.845 128.268 125.852 129.501C124.923 129.654 123.839 129.243 122.947 128.805C121.361 128.027 119.44 126.906 118.67 125.152ZM116.199 106.397C115.876 104.639 115.69 102.819 116.509 101.415C117.126 100.358 118.35 99.5329 120.149 98.9641C122.702 98.1557 125.472 98.0565 128.103 98.5851C128.022 98.6869 127.924 98.7713 127.849 98.8794C127.594 99.2513 127.399 99.6495 127.229 100.053C124.555 101.213 121.687 103.429 120.009 105.671C119.389 106.498 118.758 107.394 118.459 108.453C118.187 109.415 118.239 110.389 118.385 111.264C118.296 111.999 118.181 112.724 118.05 113.435C117.26 111.138 116.637 108.781 116.199 106.397ZM136.297 90.5635C137.57 90.1356 139.407 89.7728 140.94 90.4786C142.284 91.0979 143.174 92.389 144.116 93.7554C144.463 94.2588 144.829 94.7621 145.214 95.2534C142.171 95.4389 139.166 96.0066 136.267 96.9932C134.126 95.8842 131.488 96.0315 129.541 97.2712C128.393 96.9593 127.213 96.7902 126.02 96.7182L129.842 94.136C131.875 92.7635 133.978 91.3443 136.297 90.5635ZM126.983 115.061C127.399 115.721 127.922 116.301 128.529 116.788C128.665 117.613 129.004 118.43 129.574 119.145C130.294 120.047 131.32 120.781 132.621 121.323C134.159 121.963 135.553 122.094 136.766 121.709C137.667 121.424 138.396 120.868 138.961 120.315C139.233 120.049 139.467 119.783 139.663 119.547C140.534 118.503 141.005 117.499 141.106 116.547L143.057 117.886C144.136 118.627 145.137 119.449 145.145 120.429C145.15 121.012 144.781 121.626 144.419 122.147C141.227 126.771 135.753 129.633 130.136 129.621C129.464 129.62 128.691 129.578 128.058 129.283C126.278 128.455 125.899 125.909 125.894 123.921C125.888 120.931 126.27 117.961 126.983 115.061ZM136.127 115C135.57 114.873 135.009 114.656 134.416 114.426C133.16 113.939 131.864 113.438 130.436 113.75C129.646 113.92 129.054 114.291 128.738 114.778C128.228 114.159 127.837 113.441 127.647 112.664C127.534 112.202 127.515 111.831 127.59 111.529C127.666 111.231 127.863 110.919 128.171 110.583C128.209 110.545 128.25 110.514 128.279 110.469C129.25 109.453 130.678 108.884 132.084 108.92C133.514 108.955 134.928 109.624 135.862 110.708C136.313 111.233 136.667 111.851 137.04 112.506C137.241 112.858 137.441 113.21 137.658 113.55C138.094 114.235 138.566 114.789 139.069 115.214C138.17 115.394 137.136 115.227 136.127 115ZM130.819 118.152C130.464 117.708 130.237 117.202 130.123 116.698C130.194 116.475 130.173 116.236 130.05 116.04C130.051 115.905 130.045 115.768 130.067 115.639L130.098 115.6C130.182 115.518 130.412 115.384 130.774 115.306C131.735 115.095 132.758 115.491 133.84 115.911C134.462 116.151 135.104 116.399 135.777 116.553C137 116.829 138.271 117.026 139.465 116.763C139.316 117.297 138.974 117.887 138.441 118.528C137.681 119.436 136.997 119.966 136.284 120.193C135.442 120.459 134.415 120.345 133.233 119.853C132.182 119.415 131.37 118.843 130.819 118.152ZM136.016 98.6544C137.218 99.4656 138.098 100.77 138.869 102.057C140.647 105.026 142.099 108.2 143.184 111.49C143.338 111.956 143.462 112.371 143.423 112.739C143.337 113.562 142.429 114.222 141.582 114.773L141.515 114.84C141.414 114.716 141.286 114.612 141.12 114.567C140.994 114.533 140.87 114.469 140.746 114.41C140.701 114.392 140.66 114.364 140.614 114.354C140.053 114.048 139.511 113.495 139 112.694C138.797 112.375 138.61 112.046 138.423 111.718C138.029 111.026 137.621 110.31 137.067 109.667C135.844 108.25 133.997 107.375 132.123 107.327C130.759 107.294 129.393 107.71 128.249 108.457C128.092 107.051 128.003 105.635 128.051 104.224C128.1 102.839 128.27 101.082 129.163 99.7788C130.584 97.7343 133.839 97.1861 136.016 98.6544ZM119.991 108.886C120.217 108.09 120.731 107.363 121.284 106.626C122.542 104.949 124.615 103.236 126.667 102.104C126.55 102.826 126.483 103.535 126.46 104.168C126.396 106.039 126.519 107.92 126.796 109.772C126.435 110.222 126.164 110.673 126.047 111.143C125.92 111.642 125.941 112.203 126.069 112.829C125.952 112.927 125.853 113.048 125.808 113.207C125.192 115.337 124.787 117.516 124.549 119.715C122.585 117.617 121.093 115.086 120.262 112.334C119.816 110.861 119.733 109.798 119.991 108.886ZM145.559 128.663C145.009 129.091 144.272 129.606 143.457 129.803C142.184 130.113 140.712 129.5 139.971 128.415C141.23 127.652 142.412 126.765 143.466 125.734C144.301 124.916 145.06 124.02 145.73 123.053C146.233 122.326 146.746 121.443 146.737 120.416C146.721 118.471 144.855 117.19 143.958 116.573L142.866 115.824C143.192 115.6 143.545 115.344 143.887 115.009C144.439 114.468 144.915 113.775 145.006 112.905C145.077 112.223 144.891 111.585 144.696 110.992C143.89 108.55 142.883 106.175 141.702 103.891C142.183 103.417 143.086 103.439 143.701 103.772C144.502 104.204 145.087 105.017 145.666 105.883C146.824 107.617 147.921 109.441 148.99 111.217C149.985 112.87 151.014 114.58 151.748 116.368C152.007 116.998 152.269 117.736 152.253 118.443C152.238 119.183 151.92 119.943 151.623 120.597C150.055 124.053 148.021 126.772 145.559 128.663ZM152.2 106.694C152.136 107.977 151.852 109.731 150.925 111.342L150.919 111.341C150.729 111.022 150.539 110.702 150.349 110.386C149.277 108.605 148.169 106.764 146.991 104.999C146.323 104 145.579 102.976 144.458 102.37C143.438 101.819 141.965 101.724 140.922 102.462C140.693 102.054 140.474 101.64 140.234 101.239C139.586 100.155 138.859 99.0557 137.922 98.1577C140.809 97.2912 143.787 96.804 146.803 96.7586C147.983 96.7413 148.914 96.8243 149.628 97.2855C150.6 97.9157 151.047 99.2005 151.386 100.495C152.03 102.952 152.288 104.921 152.2 106.694ZM145.801 57.5247C143.077 57.5747 140.573 57.1006 138.144 56.0756C136.31 55.3031 134.934 54.2238 134.053 52.8671C133.145 51.4691 133.107 49.4453 133.965 48.2598C134.002 48.2077 134.044 48.1702 134.081 48.1228C133.975 49.2388 134.302 50.3575 135.036 51.2283C137.137 53.7221 140.067 54.6717 142.89 55.4298C145.158 56.0394 147.416 56.5591 149.989 56.3048C149.89 56.3826 149.793 56.4586 149.654 56.5494C148.718 57.1489 147.349 57.4944 145.801 57.5247ZM137.131 50.2248C142.065 52.6317 146.262 54.4391 150.261 55.8749C147.622 56.1973 145.313 55.6687 142.994 55.046C140.232 54.3032 137.366 53.3775 135.341 50.973C134.712 50.2266 134.396 49.2811 134.445 48.3268C135.162 49.0529 136.118 49.7304 137.131 50.2248ZM141.049 48.2215C143.899 49.7322 146.74 51.7736 149.491 54.2871C150.111 54.8538 150.441 55.2665 150.508 55.5361C146.488 54.0991 142.275 52.2915 137.306 49.8671C136.191 49.3231 135.147 48.548 134.443 47.742L134.436 47.7394C135.184 47.05 136.084 46.8989 137.236 46.9239C138.548 46.9495 139.691 47.5013 141.049 48.2215ZM149.815 48.8196C149.175 46.5351 149.271 44.1825 150.078 42.3682C150.111 42.2947 150.135 42.2274 150.143 42.1761C150.241 42.1646 150.588 42.2881 150.811 42.5733C152.217 44.3756 153.071 45.9851 153.584 47.7917C154.002 49.2625 154.104 50.5425 153.896 51.7057C153.769 52.4216 153.485 53.0726 153.072 53.5859L152.971 53.7103C152.835 53.8804 152.632 54.1392 152.675 54.181C152.674 54.1797 152.61 54.1528 152.486 54.0219C151.28 52.7513 150.479 51.1951 149.815 48.8196ZM147.074 74.1806C145.921 75.9956 144.785 76.8878 143.151 77.2602C142.048 77.5106 141.01 77.2493 140.253 76.6086C141.082 76.6649 141.935 76.5374 142.769 76.1819C143.97 75.6685 145.023 74.7752 145.921 73.8962C146.063 73.7575 146.2 73.6178 146.334 73.4816C147.26 72.5387 147.777 71.9299 148.396 70.8167C148.656 70.346 148.841 69.8313 148.964 69.2721C149.054 71.0142 147.775 73.0708 147.074 74.1806ZM155.356 70.1428C155.503 71.6696 155.327 73.8319 154.391 75.3132L154.379 75.3347C154.305 75.3176 154.208 75.2794 154.142 75.2164C153.219 74.3574 153.006 72.9401 152.988 71.9016C152.968 70.5997 153.1 69.5446 153.413 68.4777C153.517 68.1242 153.67 67.6001 153.878 67.3967L153.923 67.3596C154.198 67.1572 154.395 67.1014 154.468 67.1337C154.493 67.1446 155.095 67.4451 155.356 70.1428ZM158.385 56.7785C159.121 54.9918 160.213 53.3176 161.926 51.3497C161.989 51.2796 162.053 51.2199 162.106 51.176C162.16 51.5634 161.997 51.9857 161.699 52.5718L161.549 52.8653C160.911 54.1185 160.36 55.2001 159.481 56.3694C159.407 56.4684 159.316 56.6008 159.212 56.7527C158.5 57.7976 158.12 58.1435 157.925 58.2447C157.94 58.0336 158.04 57.6144 158.385 56.7785ZM158.744 30.5022C156.384 29.906 154.316 28.7815 152.424 27.0703C151.555 26.2845 150.786 25.0194 150.514 23.9247C150.271 22.9602 150.369 22.382 150.888 21.7147C150.932 21.6597 150.977 21.608 151.025 21.5606C151.55 21.0466 152.35 21.0062 152.953 21.0698C153.862 21.1657 154.746 21.6838 155.414 22.1249C157.188 23.2941 158.652 24.6329 160.199 26.0485L161.266 27.0191C161.655 27.3693 162.013 27.8434 162.392 28.3434C162.776 28.8522 163.184 29.3903 163.67 29.8545C163.389 30.3306 162.901 30.5724 162.106 30.7427C161.276 30.9205 160.05 30.8329 158.744 30.5022ZM166.752 23.5873L166.753 23.5866C168.182 21.0804 170.103 19.1282 172.473 17.7912C172.968 17.5113 173.428 17.3838 173.881 17.4011C174.141 17.4113 174.381 17.7095 174.404 17.8578C174.416 17.9393 174.408 17.9724 174.386 18.0726C174.339 18.2933 174.258 18.6639 174.53 19.154C174.655 19.3769 174.791 19.5185 174.925 19.6244C174.245 20.5451 173.672 21.5373 173.116 22.5075C172.426 23.7135 171.711 24.9599 170.802 26.0303C170.226 26.7055 169.499 27.243 168.798 27.7629C168.584 27.9209 168.372 28.077 168.167 28.2372C167.508 28.7463 166.846 29.1127 166.18 29.4518C165.948 29.4162 165.729 29.3504 165.526 29.2491C165.585 28.8939 165.611 28.5261 165.622 28.1567C165.677 26.3467 165.867 25.1417 166.752 23.5873ZM176.353 21.2065C176.281 21.9906 176.229 22.3981 175.844 23.0885C173.298 27.6424 170.453 29.6832 166.953 29.5056C167.439 29.2341 167.923 28.9287 168.41 28.5514C168.613 28.3937 168.824 28.2394 169.035 28.0833C169.592 27.6698 170.165 27.2465 170.675 26.7468C170.824 26.601 170.969 26.4488 171.104 26.2875C172.038 25.1896 172.762 23.9264 173.462 22.7055C174.017 21.735 174.593 20.7415 175.271 19.8302L175.377 19.8751C175.476 19.9143 175.563 19.9481 175.687 20.0308C175.994 20.2327 176.396 20.7536 176.353 21.2065ZM187.716 19.575C185.078 20.5477 183.234 22.4081 182.235 25.1051C181.541 26.9735 181.076 29.6736 181.841 31.6646C179.107 33.5724 176.793 35.5214 174.809 37.5796C174.447 37.6347 174.156 37.9198 174.133 38.3004C171.921 40.7221 170.154 43.3174 168.733 46.1959C168.394 44.3498 168.007 42.589 167.607 40.8079C166.943 37.8538 166.269 34.7663 165.731 30.9664C165.828 30.9868 165.909 31.0308 166.012 31.0451C169.03 31.4522 171.672 30.5365 174.001 28.2559C175.153 27.1277 176.228 25.6657 177.234 23.8647C177.761 22.9196 177.855 22.2553 177.938 21.354C178.045 20.2254 177.301 19.1881 176.564 18.7019C176.301 18.528 176.095 18.4473 175.942 18.4094C175.977 18.2536 176.034 17.9916 175.978 17.624C175.855 16.7831 175.04 15.8504 173.942 15.8101C173.195 15.7816 172.437 15.9818 171.69 16.4042C169.066 17.8856 166.939 20.0372 165.369 22.8005C164.371 24.5533 164.112 26.0095 164.038 27.875C163.913 27.7147 163.787 27.5488 163.661 27.3819C163.253 26.8435 162.832 26.2877 162.332 25.8362L161.274 24.8738C159.678 23.4138 158.17 22.0346 156.291 20.7957C155.471 20.2554 154.371 19.6183 153.121 19.4869C151.623 19.3282 150.377 19.7663 149.632 20.738C148.816 21.7846 148.612 22.888 148.968 24.3106C149.318 25.7087 150.255 27.255 151.356 28.2507C153.446 30.1418 155.736 31.3834 158.354 32.0468C159.256 32.2744 160.987 32.6101 162.44 32.3006C163.199 32.1371 163.763 31.8742 164.206 31.5509C164.742 35.2422 165.403 38.2639 166.053 41.1568C167.352 46.9318 168.473 51.9194 168.116 60.7963C167.956 64.8451 167.468 69.8199 166.594 75.1791C166.1 72.1842 165.118 69.3131 163.699 66.801C163.679 66.5717 163.555 66.368 163.366 66.232C163.23 66.0084 163.11 65.7703 162.967 65.5532C161.384 63.1417 159.715 61.4244 157.975 59.8603C158.506 59.8029 158.981 59.4918 159.393 59.0884C159.855 58.6367 160.237 58.0771 160.528 57.6487C160.616 57.5213 160.692 57.4082 160.754 57.3259C161.716 56.0461 162.323 54.8524 162.968 53.5877L163.115 53.2951C163.424 52.6929 163.998 51.5698 163.514 50.3224C163.389 49.99 163.19 49.6606 162.583 49.5078C161.881 49.3293 161.162 49.8011 160.727 50.3048C158.894 52.4084 157.718 54.2173 156.885 56.2392C156.589 56.957 156.303 57.7461 156.342 58.4384C156.169 58.2907 155.997 58.1434 155.822 57.9958C154.95 57.2562 154.048 56.4769 153.131 55.6384C153.357 55.5437 153.567 55.4145 153.75 55.2346C153.948 55.0408 154.13 54.8133 154.311 54.584C154.892 53.8625 155.291 52.9633 155.465 51.9847C155.715 50.5782 155.601 49.0656 155.116 47.3575C154.545 45.3428 153.604 43.5652 152.066 41.5936C151.49 40.8547 150.381 40.3226 149.527 40.712C148.924 40.9817 148.762 41.3308 148.623 41.718C147.316 44.6633 147.847 47.7012 148.282 49.25C148.576 50.3011 148.918 51.1953 149.296 52.016C146.841 49.9177 144.326 48.1568 141.795 46.8162C140.301 46.0232 138.929 45.3651 137.269 45.3314C135.733 45.2993 133.986 45.5101 132.674 47.326C131.438 49.0363 131.457 51.7912 132.719 53.7346C133.776 55.3629 135.392 56.6438 137.525 57.543C140.164 58.6569 142.879 59.1707 145.829 59.115C147.131 59.0918 149 58.8585 150.513 57.889C150.787 57.7135 151.102 57.4928 151.38 57.2206C151.559 57.0444 151.719 56.8455 151.849 56.6253C152.862 57.5607 153.845 58.4068 154.793 59.2107C157.078 61.1464 159.083 62.8535 160.986 65.4933C157.104 64.618 153.238 65.099 148.796 66.1323C146.694 65.1821 143.455 67.1314 142.088 67.9585L142.445 68.672L142.911 69.3212C144.079 68.6153 147.632 66.4687 148.604 68C148.655 68.0807 148.671 68.1735 148.712 68.2593C148.643 69.1598 148.425 69.9411 148.048 70.6231C147.451 71.6961 146.95 72.287 146.05 73.2032C145.09 74.1713 143.939 75.2482 142.613 75.8157C141.68 76.213 140.723 76.3063 139.815 76.1497C139.627 75.9108 139.462 75.6497 139.34 75.3499C138.782 73.969 139.439 72.6231 139.884 71.9446C140.154 71.5272 140.432 71.185 140.751 70.8726C141.287 70.3484 141.936 69.9106 142.857 69.3529L142.445 68.672L142.035 67.9915L142.034 67.9921C140.417 68.9686 139.436 69.7138 138.549 71.0754C137.492 72.6959 137.248 74.4254 137.864 75.9461C138.767 78.1827 141.086 79.3608 143.503 78.8135C144.828 78.5133 145.907 77.9397 146.876 76.9905C147.417 76.4607 147.924 75.8139 148.419 75.0318C149.435 73.4237 151.47 70.1539 150.098 67.4793C150.823 67.3211 151.534 67.1806 152.228 67.0614C152.075 67.394 151.971 67.7371 151.885 68.0295C151.524 69.2552 151.374 70.4577 151.397 71.9275C151.418 73.2739 151.723 75.1406 153.057 76.3826C153.549 76.8396 154.296 77.0452 154.867 76.8835C155.128 76.813 155.308 76.7054 155.446 76.5704C155.564 76.4543 155.652 76.3165 155.735 76.1672C157.185 73.8699 157.024 70.8578 156.94 69.9892C156.793 68.4652 156.518 67.3652 156.098 66.6355C158.205 66.5656 160.231 66.8169 162.267 67.5029C164.701 71.7639 165.799 77.1722 165.231 82.3099C164.166 87.1847 162.784 92.1674 161.043 96.9222C160.83 97.3224 160.653 97.7417 160.516 98.1718C160.493 98.247 160.494 98.3208 160.491 98.3956C160.043 99.5584 159.567 100.698 159.073 101.821C158.981 101.428 158.895 101.034 158.789 100.645C158.567 99.8308 158.275 98.8806 157.787 98.0127C157.278 97.1052 156.602 96.353 155.947 95.6248C154.98 94.5485 153.885 93.3297 152.371 92.6842C150.129 91.7288 147.575 92.3266 145.711 92.7627C145.613 92.7851 145.528 92.8302 145.449 92.8832L145.427 92.8523C144.405 91.3689 143.345 89.8335 141.607 89.033C140.017 88.3006 138.006 88.3086 135.79 89.0545C133.265 89.9033 131.072 91.3842 128.95 92.8161L123.409 96.5597C123.326 96.6183 123.259 96.6902 123.204 96.7694C122.005 96.8879 120.814 97.0841 119.669 97.4458C117.483 98.1382 115.959 99.2052 115.133 100.613C114.051 102.471 114.273 104.724 114.633 106.685C115.242 110.004 116.195 113.275 117.462 116.41C117.224 117.588 116.993 118.792 116.841 120.062C116.637 121.772 116.382 123.899 117.212 125.792C118.189 128.019 120.415 129.336 122.247 130.235C122.287 130.255 122.331 130.274 122.372 130.294L122.372 130.305C122.843 132.586 124.37 134.382 125.801 135.838C127.587 137.654 129.559 139.302 131.664 140.738C132.55 141.342 133.598 141.995 134.833 142.109C136.261 142.24 137.596 141.613 138.714 140.981C141.068 139.651 143.229 138.026 145.155 136.14C145.493 135.809 145.825 135.469 146.148 135.121C146.918 134.296 147.641 133.428 148.336 132.548C148.447 132.559 148.56 132.552 148.672 132.513C151.236 131.642 154.141 130.653 156.294 128.564L156.318 128.54C157.426 127.455 158.249 126.145 158.843 125.124C161.129 121.198 162.281 117.436 162.266 113.945C162.262 113.213 162.21 112.356 161.845 111.546C161.533 110.854 161.037 110.305 160.6 109.822C160.301 109.492 159.983 109.146 159.655 108.799L159.693 108.774C159.847 108.622 159.939 108.409 159.932 108.177C159.885 106.866 159.758 105.559 159.557 104.263C159.605 104.234 159.664 104.227 159.705 104.188C159.771 104.122 159.828 104.046 159.868 103.955C160.821 101.913 161.686 99.781 162.486 97.6076C162.994 96.6726 163.743 95.8613 164.638 95.298C165.744 94.6071 167.092 94.308 168.396 94.4127C168.64 97.4954 170.921 100.309 173.899 101.147C175.717 101.659 177.617 101.46 179.295 101.287L189.05 100.276C189.264 100.252 189.621 100.213 189.932 99.9733C189.966 99.9467 190.006 99.9143 190.048 99.8737C190.317 99.6103 190.67 99.031 190.27 97.9779C190.079 97.4755 189.853 96.9846 189.606 96.5001C189.986 96.4866 190.376 96.4697 190.789 96.3861C191.117 96.3188 191.526 96.2345 191.907 96.0085C192.054 95.9218 192.19 95.8175 192.313 95.6974C192.853 95.1686 193.147 94.3468 193.084 93.4746C193.028 92.7149 192.738 92.0265 192.483 91.4186L192.419 91.2659C191.486 89.0312 190.837 86.6808 190.491 84.2802C190.385 83.5477 190.062 81.3197 188.288 81.0201L188.237 81.018C188.177 80.9545 188.115 80.8931 188.036 80.8516C187.072 80.3386 185.909 80.2729 184.872 80.6078C184.674 80.0227 184.363 79.4759 183.876 79.0265C183.763 78.922 183.421 78.6051 182.937 78.5713C182.384 78.5289 181.984 78.8495 181.63 79.1312C181.255 79.4067 180.656 79.4176 180.02 79.4272L179.675 79.4352C175.766 79.559 171.775 81.9808 169.004 85.9196C168.2 87.0587 167.166 88.7984 167.453 90.7228C167.564 91.4734 167.9 92.1892 168.381 92.8232C166.786 92.7257 165.148 93.1034 163.795 93.9476L163.735 93.993C164.898 90.4087 165.873 86.7499 166.676 83.1418C166.729 83.0519 166.771 82.9528 166.784 82.8416C166.797 82.7387 166.798 82.6345 166.809 82.5317C168.567 74.4556 169.475 66.7061 169.709 60.8606C169.909 55.8399 169.625 51.9835 169.124 48.572C169.204 48.5346 169.292 48.5133 169.356 48.4505C169.426 48.3818 169.485 48.2991 169.528 48.2042C171.014 44.8429 172.967 41.8991 175.508 39.1616C176.812 39.2169 178.115 39.245 179.419 39.2562C179.52 39.2576 179.625 39.2603 179.727 39.2619C179.467 39.8266 179.591 40.6127 179.72 41.2105C180.162 43.2707 180.764 45.6372 182.304 47.6636C182.556 48.1516 183.04 48.2418 183.318 48.1355C183.578 48.1157 183.792 48.025 183.958 47.8628C184.127 47.6968 184.245 47.4568 184.314 47.1433C184.419 46.6603 184.574 45.7156 184.44 44.828C184.41 44.6212 184.396 44.4058 184.382 44.185C184.342 43.5888 184.298 42.9136 183.989 42.165L183.901 41.9472C183.564 41.1194 183.099 40.0568 182.256 39.3026C183.168 39.3278 184.082 39.3674 184.982 39.4385L185.125 39.4184C185.187 39.7254 185.357 40.0768 185.716 40.4601C186.874 41.6949 189.028 41.736 190.758 41.7688C191.07 41.7752 191.365 41.7808 191.631 41.794C192.059 41.815 192.628 41.811 193.227 41.5785C193.431 41.4987 193.607 41.3807 193.752 41.2382C194.201 40.7989 194.365 40.1269 194.209 39.6258C194.061 39.1471 193.775 38.9363 193.572 38.7858C193.111 38.3798 191.91 37.4121 190.721 37.1637C190.031 37.0197 189.76 37.0413 189.303 37.0953C189.171 37.1102 189.017 37.1292 188.81 37.1443L188.809 37.1449C187.176 37.2729 186.144 37.5681 185.587 38.0764C185.459 37.9552 185.299 37.8669 185.109 37.8521C183.21 37.7007 181.29 37.6827 179.435 37.6658C178.635 37.658 177.835 37.6243 177.035 37.6068C178.712 36.004 180.61 34.4606 182.791 32.9442C183.534 33.4696 184.714 33.6494 186.604 32.9266C187.487 32.587 188.276 32.0811 188.958 31.4133C189.319 31.06 189.65 30.6623 189.949 30.2196C191.862 27.4098 192.236 24.4556 191.092 21.1879C190.824 20.4209 190.35 19.8658 189.719 19.582C189.107 19.307 188.45 19.3026 187.716 19.575Z" fill="white"/>
<path fill-rule="evenodd" clip-rule="evenodd" d="M129.192 144.478C129.371 145.464 128.987 146.492 128.582 147.582C128.477 147.864 128.373 148.153 128.275 148.445C126.98 146.873 125.505 145.465 123.864 144.253C123.598 142.526 122.424 141.023 120.886 140.35C120.674 139.772 120.421 139.212 120.125 138.67L122.608 139.622C124.239 140.248 125.925 140.894 127.319 141.922C128.062 142.469 128.989 143.357 129.192 144.478ZM131.486 152.359C131.666 153.218 131.436 154.209 131.233 155.085C131.084 155.724 130.944 156.33 130.688 156.864C130.44 157.376 130.064 157.856 129.73 158.258C128.864 159.298 127.879 160.231 126.84 161.099C126.907 160.09 126.829 159.041 126.429 158.054L126.422 158.043C126.766 157.764 127.11 157.461 127.459 157.119C127.916 156.672 128.381 156.167 128.863 155.599C129.626 154.702 130.399 153.609 130.353 152.308C130.32 151.443 129.934 150.702 129.478 150.025L129.485 150.01C129.51 149.887 129.553 149.762 129.586 149.638C130.516 150.504 131.272 151.346 131.486 152.359ZM124.792 163.674C124.707 164.05 124.618 164.437 124.448 164.723C124.254 165.05 123.909 165.32 123.596 165.541C121.751 166.844 119.29 167.633 116.281 167.885C115.467 167.954 114.509 168 113.577 167.821C112.47 167.609 111.435 167.066 110.458 166.441C110.957 166.445 111.48 166.426 112.011 166.247C112.426 166.105 112.787 165.883 113.071 165.605C113.313 165.369 113.472 165.083 113.588 164.781C114.48 164.739 115.391 164.655 116.339 164.479C117.024 164.35 117.746 164.174 118.374 163.755C118.571 163.623 118.748 163.476 118.908 163.319C119.267 162.968 119.545 162.569 119.777 162.204C120.177 161.582 120.528 160.932 120.852 160.274C122.247 160.252 123.678 159.828 125.042 159.008C125.455 160.372 125.192 161.93 124.792 163.674ZM99.3587 162.697C98.6849 162.376 98.0172 162 97.6952 161.435C97.4147 160.943 97.3837 160.265 97.3774 159.666C97.3544 157.927 97.5054 156.177 97.8235 154.463C97.9867 153.581 98.2233 152.626 98.6641 151.8C98.9235 152.307 99.2864 152.764 99.8258 153.075L99.9226 153.093C100.057 153.841 100.441 154.47 100.8 154.985C101.987 156.69 103.576 158.074 105.374 159.085C104.873 160.489 105.264 162.149 106.398 163.147C107.041 163.713 107.823 164.004 108.434 164.196C109.39 164.493 110.41 164.657 111.465 164.743C111.035 164.879 110.513 164.867 110.008 164.85C108.511 164.801 106.964 164.75 105.472 164.541C103.349 164.242 101.293 163.622 99.3587 162.697ZM99.6632 149.602C99.4736 148.383 99.3427 146.842 100.021 145.73C100.594 144.783 101.723 144.179 102.718 143.645C103.671 143.135 104.602 142.732 105.587 142.306C105.643 142.281 105.703 142.254 105.759 142.23C104.918 143.701 104.312 145.307 104.011 146.978C103.986 147.121 104.012 147.256 104.058 147.384C103.615 147.66 103.172 147.939 102.745 148.24C101.404 149.183 100.576 150.195 100.175 151.225C99.8913 150.775 99.7488 150.153 99.6632 149.602ZM110.01 136.591C110.876 135.703 111.839 134.877 112.93 134.786C113.749 134.718 114.686 135.085 115.717 135.874C117.119 136.947 118.245 138.38 119.007 139.978C118.716 139.985 118.434 140.028 118.157 140.084C116.347 138.992 113.873 138.218 111.855 138.152C111.092 138.128 110.281 138.127 109.499 138.399C108.795 138.643 108.227 139.083 107.758 139.538C107.592 139.627 107.426 139.7 107.261 139.783C108.119 138.67 109.023 137.592 110.01 136.591ZM108.817 146.734C108.701 147.105 108.631 147.485 108.599 147.872C108.171 148.31 107.831 148.856 107.643 149.494C107.397 150.326 107.386 151.268 107.612 152.297C107.882 153.521 108.407 154.439 109.174 155.025C110.019 155.671 111.053 155.825 111.757 155.884C112.614 155.958 113.325 155.855 113.916 155.615L113.928 156.977C113.937 157.815 113.872 158.712 113.385 159.069C113.096 159.276 112.625 159.306 112.204 159.308C108.241 159.332 104.371 157.326 102.106 154.075C101.844 153.699 101.566 153.255 101.487 152.804C101.261 151.527 102.542 150.325 103.66 149.543C105.268 148.412 107 147.476 108.817 146.734ZM112.302 145.427L112.417 145.449C113.344 145.611 114.202 146.163 114.724 146.948C115.257 147.752 115.435 148.793 115.197 149.729C115.079 150.19 114.864 150.643 114.637 151.123C114.512 151.389 114.385 151.654 114.274 151.925C114.117 152.304 114.019 152.663 113.947 153.013C113.651 152.615 113.412 152.128 113.205 151.622C113.048 151.239 112.948 150.822 112.848 150.41C112.62 149.483 112.363 148.435 111.539 147.676C111.163 147.329 110.758 147.137 110.367 147.074C110.52 146.645 110.748 146.243 111.048 145.902C111.249 145.674 111.432 145.529 111.604 145.463C111.775 145.396 112.013 145.386 112.302 145.427ZM109.642 149.073C109.841 148.996 110.001 148.844 110.086 148.649L110.115 148.626C110.156 148.633 110.297 148.696 110.46 148.846C110.93 149.28 111.102 149.98 111.302 150.79C111.417 151.262 111.537 151.751 111.732 152.226C112.032 152.96 112.383 153.691 112.9 154.276C112.564 154.33 112.203 154.324 111.892 154.299C111.089 154.23 110.532 154.059 110.142 153.761C109.569 153.322 109.294 152.535 109.168 151.955C108.999 151.192 109 150.516 109.17 149.944C109.271 149.602 109.447 149.312 109.642 149.073ZM117.791 154.281C117.594 154.542 117.417 154.77 117.225 154.874C116.825 155.096 116.18 154.9 115.533 154.644C115.531 154.559 115.549 154.476 115.519 154.392C115.352 153.924 115.428 153.3 115.745 152.534C115.847 152.289 115.962 152.047 116.076 151.805C116.326 151.278 116.584 150.731 116.739 150.12C117.086 148.756 116.829 147.24 116.05 146.066C115.547 145.309 114.819 144.721 113.999 144.324C114.681 143.742 115.387 143.189 116.136 142.703C116.944 142.176 118.013 141.573 119.089 141.561C120.734 141.545 122.318 143.173 122.348 144.911C122.365 145.913 121.97 146.937 121.54 147.898C120.53 150.155 119.269 152.303 117.791 154.281ZM110.022 139.903C110.548 139.72 111.165 139.724 111.804 139.744C113.144 139.788 114.773 140.209 116.172 140.831C115.848 141.006 115.543 141.189 115.268 141.368C114.157 142.088 113.117 142.925 112.15 143.835C111.743 143.818 111.366 143.849 111.034 143.975C110.693 144.106 110.376 144.343 110.066 144.648C109.956 144.637 109.841 144.645 109.729 144.682C108.37 145.147 107.057 145.724 105.79 146.39C106.244 144.586 107.054 142.874 108.208 141.408C108.859 140.573 109.42 140.111 110.022 139.903ZM108.909 162.676C108.449 162.532 107.868 162.32 107.45 161.951C106.868 161.438 106.653 160.559 106.843 159.802C108.538 160.512 110.363 160.912 112.214 160.901C112.885 160.897 113.658 160.83 114.309 160.366C114.415 160.291 114.513 160.209 114.602 160.122C115.542 159.201 115.528 157.711 115.52 156.962L115.515 156.334C116.225 156.565 117.155 156.734 117.997 156.267C118.209 156.15 118.39 156.003 118.546 155.849C118.765 155.635 118.934 155.409 119.066 155.234C120.139 153.797 121.096 152.27 121.939 150.684C122.233 150.821 122.46 151.203 122.503 151.566C122.573 152.161 122.344 152.814 122.083 153.485C121.531 154.903 120.914 156.288 120.313 157.638C119.754 158.896 119.175 160.195 118.437 161.345C118.187 161.735 117.876 162.166 117.49 162.432C117.082 162.703 116.53 162.823 116.046 162.914C113.403 163.407 111.001 163.327 108.909 162.676ZM127.95 150.608C128.359 151.173 128.74 151.777 128.761 152.364C128.788 153.119 128.242 153.869 127.648 154.569C126.489 155.94 125.452 156.889 124.387 157.557C123.706 157.984 122.731 158.451 121.61 158.628C121.662 158.511 121.72 158.392 121.772 158.275C122.348 156.982 123.002 155.516 123.567 154.062C123.891 153.231 124.197 152.339 124.085 151.381C123.988 150.555 123.471 149.659 122.653 149.252C122.764 149.017 122.885 148.785 122.992 148.547C123.321 147.814 123.619 147.036 123.79 146.222C125.358 147.5 126.76 148.963 127.95 150.608ZM31.1106 183.143C30.6853 184.19 29.9762 185.026 28.9418 185.697C26.6861 187.164 24.3388 187.467 21.7889 186.646C23.1431 186.335 24.5677 185.929 26.0527 185.287C28.0523 184.424 29.6339 183.411 30.9017 182.17C31.1171 181.959 31.3172 181.736 31.5151 181.513C31.5114 181.896 31.4093 182.408 31.1106 183.143ZM20.6458 185.956C20.578 185.797 20.5303 185.577 20.6958 185.156C21.1125 184.097 21.6848 183.21 22.4231 182.487C23.2141 181.713 24.1963 181.126 25.3804 180.715C27.0403 180.139 29.3711 179.828 30.8355 180.432C31.0168 180.507 31.2853 180.628 31.4283 180.961C30.0784 182.593 28.314 183.877 25.8948 184.922C24.2844 185.617 22.7717 186.031 21.1113 186.384C20.891 186.267 20.7197 186.129 20.6458 185.956ZM45.4102 180.308C45.2061 180.308 44.9985 180.296 44.8005 180.261C44.5521 180.219 44.2942 180.196 44.0266 180.172C43.5079 180.127 43.0177 180.084 42.5146 179.864L42.2922 179.768C41.5822 179.463 40.7212 179.092 40.2242 178.499C40.3408 178.517 40.4797 178.544 40.6449 178.583C42.1782 178.947 43.8888 179.406 45.4102 180.308ZM39.7478 188.08C39.7469 188.408 39.7467 188.72 39.7541 189C39.7664 189.415 39.7288 189.686 39.6351 189.966L39.5163 189.809C38.8817 189.053 38.4056 188.21 38.3015 187.657C38.2135 187.186 38.2264 187.093 38.2742 186.747C38.2951 186.601 38.3189 186.425 38.342 186.191C38.5073 184.512 38.8056 184.051 38.7915 183.969C38.8307 183.99 38.9078 184.04 39.0236 184.153C39.7534 184.866 39.7499 186.724 39.7478 188.08ZM22.9765 172.78C22.2782 173.15 21.8694 173.194 21.0815 173.249C20.6305 173.282 20.1182 172.869 19.9222 172.559C19.8428 172.432 19.8102 172.346 19.7737 172.244L19.731 172.138C20.6557 171.48 21.661 170.925 22.6436 170.39C23.8789 169.715 25.157 169.019 26.2744 168.107C26.4382 167.976 26.593 167.835 26.7419 167.689C27.2529 167.189 27.6881 166.625 28.1132 166.077C28.2737 165.869 28.432 165.662 28.594 165.462C28.9818 164.983 29.2966 164.506 29.5783 164.025C29.6817 167.527 27.5829 170.329 22.9765 172.78ZM17.3316 170.697C17.3238 170.244 17.461 169.786 17.7515 169.298C18.4017 168.2 19.1845 167.203 20.0941 166.312C21.1239 165.303 22.3185 164.43 23.6655 163.7C25.2387 162.848 26.4468 162.684 28.2582 162.666C28.6272 162.663 28.9957 162.644 29.352 162.593C29.4494 162.798 29.5106 163.018 29.5413 163.251C29.188 163.91 28.8081 164.564 28.2847 165.212C28.1202 165.414 27.9602 165.623 27.7978 165.833C27.263 166.524 26.71 167.239 26.0235 167.8C24.9337 168.687 23.6732 169.375 22.4523 170.04C21.4716 170.575 20.4666 171.128 19.5325 171.787C19.4294 171.651 19.2907 171.513 19.0705 171.383C18.5856 171.101 18.214 171.173 17.9923 171.217C17.8917 171.236 17.8584 171.244 17.775 171.229C17.6295 171.204 17.3363 170.958 17.3316 170.697ZM26.2644 157.2C24.8815 155.623 23.5738 154.132 22.4414 152.334C22.0151 151.657 21.5156 150.762 21.4392 149.851C21.3826 149.19 21.4502 148.293 22.1269 147.799C22.8044 147.296 23.3848 147.21 24.3446 147.472C25.433 147.768 26.6817 148.563 27.4491 149.448C29.1199 151.375 30.2004 153.467 30.7476 155.839C31.0501 157.152 31.1127 158.379 30.9175 159.205C30.7305 159.996 30.4779 160.479 29.996 160.751C29.5421 160.255 29.0127 159.836 28.5127 159.44C28.0202 159.052 27.5546 158.682 27.2124 158.287L26.2644 157.2ZM54.5071 150.193C54.422 150.308 54.2124 150.447 54.0718 150.554L53.9453 150.652C53.4234 151.055 52.7663 151.325 52.0476 151.438C50.8809 151.621 49.6033 151.492 48.141 151.043C46.3456 150.493 44.7552 149.604 42.9829 148.162C42.7015 147.932 42.586 147.582 42.5856 147.498L42.7888 147.425C44.6235 146.655 46.9778 146.608 49.2484 147.296C51.6088 148.011 53.1485 148.843 54.3935 150.076C54.4477 150.13 54.4838 150.172 54.5071 150.193ZM54.7209 147.088C52.2663 144.284 50.285 141.401 48.8345 138.519C48.1429 137.146 47.615 135.993 47.6159 134.679C47.6164 133.528 47.7867 132.631 48.4907 131.898L48.4937 131.905C49.2847 132.625 50.0378 133.685 50.5582 134.811C52.8772 139.83 54.5963 144.081 55.9488 148.13C55.6808 148.058 55.2744 147.719 54.7209 147.088ZM53.6252 131.623C54.9638 132.532 56.0134 133.931 56.7472 135.78C57.7216 138.23 58.143 140.744 58.0359 143.465C57.973 145.012 57.5982 146.375 56.9802 147.297C56.8861 147.436 56.8075 147.532 56.7279 147.63C57.0368 145.062 56.5647 142.792 56.0025 140.511C55.3032 137.674 54.4163 134.723 51.9668 132.571C51.1113 131.819 49.9997 131.469 48.8814 131.552C48.9303 131.515 48.9679 131.474 49.0215 131.438C50.2247 130.605 52.2466 130.686 53.6252 131.623ZM49.0784 131.919C50.0335 131.89 50.9722 132.226 51.7052 132.87C54.0666 134.945 54.932 137.83 55.6166 140.607C56.1905 142.939 56.6699 145.258 56.2927 147.89C54.9412 143.862 53.2223 139.628 50.9195 134.645C50.4465 133.622 49.7892 132.652 49.0784 131.919ZM56.9825 156.857C56.8284 156.959 56.6936 157.047 56.5936 157.118C55.4062 157.972 54.3132 158.501 53.0475 159.111L52.7503 159.256C52.1886 159.528 51.7755 159.68 51.3589 159.624C51.403 159.57 51.4608 159.516 51.5231 159.458C53.5271 157.787 55.2233 156.73 57.0919 156.006C57.8852 155.698 58.2917 155.611 58.5018 155.602C58.3959 155.795 58.0418 156.168 56.9825 156.857ZM69.8904 140.824L69.9236 140.77C70.8431 139.322 71.4426 138.554 72.5771 137.852C73.2644 137.422 74.6239 136.793 75.9927 137.381C76.2899 137.508 76.5475 137.679 76.7824 137.872C76.9199 138.783 76.8066 139.737 76.3898 140.662C75.7958 141.978 74.7002 143.111 73.7053 144.045C72.7708 144.924 72.1695 145.413 71.0845 145.987C70.3938 146.35 69.6081 146.552 68.7054 146.602C68.6214 146.56 68.5299 146.542 68.4506 146.488C66.9394 145.484 69.1602 141.977 69.8904 140.824ZM77.8223 141.231C77.4191 142.86 76.5042 143.978 74.6613 145.089C73.5358 145.766 71.4518 147.003 69.7117 146.876C70.2746 146.765 70.7937 146.59 71.2704 146.339C72.3964 145.743 73.0159 145.239 73.978 144.334C74.1171 144.203 74.2596 144.068 74.4012 143.929C75.2989 143.05 76.2141 142.016 76.7526 140.826C77.1255 140 77.2709 139.15 77.2317 138.32C77.8567 139.09 78.0961 140.133 77.8223 141.231ZM72.2581 150.954C73.2966 150.993 74.7091 151.235 75.5485 152.176C75.6095 152.245 75.6469 152.343 75.6621 152.415L75.6445 152.425C74.1395 153.332 71.9739 153.462 70.4506 153.283C67.759 152.966 67.4712 152.358 67.4608 152.333C67.43 152.259 67.4899 152.063 67.6978 151.792L67.6981 151.792L67.7358 151.748C67.9438 151.544 68.471 151.403 68.8272 151.306C69.8999 151.015 70.9575 150.906 72.2581 150.954ZM123.179 138.137L118.693 136.416C118.638 136.396 118.582 136.396 118.527 136.389C117.964 135.741 117.362 135.129 116.684 134.61C115.33 133.572 114.022 133.097 112.799 133.2C111.186 133.334 109.91 134.421 108.876 135.472C107.176 137.2 105.647 139.101 104.327 141.122C103.55 141.461 102.762 141.815 101.965 142.242C100.85 142.842 99.461 143.588 98.6618 144.902C97.7158 146.455 97.8591 148.36 98.0891 149.846L98.0906 149.852C96.9518 151.114 96.5077 152.816 96.2569 154.172C95.9211 155.988 95.7618 157.844 95.7844 159.685C95.7853 159.775 95.7912 159.872 95.7937 159.967C91.3681 161.406 86.7993 162.542 82.3528 163.415C77.2205 163.862 71.8596 162.652 67.6655 160.138C67.023 158.088 66.8143 156.057 66.9284 153.952C67.6492 154.387 68.7432 154.685 70.2638 154.864C71.1298 154.966 74.1385 155.191 76.5249 153.757C76.6451 153.694 76.7651 153.62 76.8732 153.514C77.006 153.384 77.1212 153.206 77.1981 152.943C77.3737 152.369 77.1838 151.617 76.7372 151.116C75.5236 149.756 73.664 149.412 72.318 149.363C70.8484 149.31 69.643 149.434 68.4106 149.769C68.1165 149.849 67.7716 149.945 67.4359 150.09C67.5699 149.399 67.7247 148.692 67.8981 147.971C70.542 149.399 73.8544 147.433 75.4841 146.451C76.2764 145.972 76.9338 145.479 77.4748 144.949C78.4435 144 79.0402 142.933 79.3679 141.616C79.9658 139.21 78.8363 136.868 76.6195 135.918C75.1124 135.269 73.3781 135.477 71.7358 136.5C70.3558 137.358 69.5912 138.325 68.58 139.919L68.5453 139.972C67.6894 141.322 65.6734 144.518 66.579 146.641L66.5783 146.642C65.452 151.06 64.8896 154.916 65.6833 158.816C63.0846 156.856 61.42 154.816 59.5324 152.491C58.7489 151.526 57.923 150.525 57.0097 149.494C57.232 149.369 57.4342 149.211 57.6135 149.036C57.8914 148.764 58.1199 148.455 58.3018 148.184C59.3022 146.692 59.5746 144.829 59.6259 143.527C59.7429 140.579 59.2861 137.854 58.2272 135.192C57.373 133.041 56.1273 131.398 54.5209 130.307C52.6041 129.005 49.8508 128.928 48.115 130.127C46.2731 131.402 46.0251 133.144 46.0234 134.678C46.022 136.338 46.6523 137.725 47.4135 139.236C48.7009 141.794 50.4081 144.345 52.4547 146.845C51.6418 146.45 50.755 146.089 49.7106 145.772C48.1712 145.306 45.1455 144.71 42.0901 145.985C41.7834 146.086 41.4284 146.24 41.1499 146.837C40.7411 147.684 41.2497 148.804 41.978 149.396C43.9156 150.974 45.6731 151.952 47.6747 152.566C49.3728 153.086 50.8828 153.232 52.2936 153.011C53.2762 152.858 54.1836 152.478 55.0364 151.821C55.2143 151.686 55.4089 151.539 55.5844 151.367C55.7605 151.195 55.8944 150.985 55.9954 150.753C56.8146 151.689 57.5751 152.607 58.2958 153.495C58.4407 153.673 58.584 153.848 58.728 154.025C58.0329 153.972 57.2246 154.247 56.4491 154.546C54.479 155.311 52.6458 156.449 50.5042 158.236C49.9927 158.664 49.5043 159.37 49.6681 160.074C49.8085 160.685 50.133 160.892 50.5026 161.039C51.7003 161.534 52.8345 160.984 53.4431 160.688L53.74 160.545C55.0173 159.928 56.2235 159.346 57.5226 158.411C57.6067 158.351 57.7214 158.277 57.8506 158.192C58.2851 157.91 58.8526 157.54 59.3136 157.088C59.7259 156.684 60.0469 156.215 60.1153 155.686C61.6419 157.46 63.3242 159.164 65.7019 160.797C65.9163 160.944 66.1512 161.07 66.3725 161.21C66.5041 161.402 66.7056 161.531 66.9344 161.556C69.4083 163.022 72.2479 164.062 75.2211 164.62C69.7853 165.391 64.7979 165.771 60.8376 165.845C51.9559 166.015 46.9932 164.789 41.2464 163.37C38.3684 162.66 35.3609 161.936 31.6836 161.321C32.0151 160.885 32.2886 160.327 32.468 159.571C32.808 158.125 32.5086 156.388 32.2997 155.482C31.6918 152.849 30.4985 150.534 28.6517 148.405C27.6793 147.284 26.153 146.314 24.7623 145.935C23.3475 145.549 22.2403 145.73 21.1768 146.524C20.191 147.249 19.7255 148.484 19.8528 149.985C19.9579 151.238 20.5711 152.352 21.0947 153.182C22.2939 155.087 23.6415 156.623 25.0673 158.25L26.0073 159.327C26.4479 159.837 26.995 160.27 27.5248 160.689C27.689 160.819 27.8519 160.948 28.0092 161.077C26.1432 161.111 24.6819 161.339 22.9082 162.301C20.1119 163.812 17.919 165.896 16.3816 168.485C15.9429 169.224 15.7269 169.978 15.7403 170.724C15.757 171.823 16.6723 172.658 17.5085 172.798C17.8768 172.862 18.1399 172.811 18.2802 172.795C18.3304 172.933 18.4074 173.141 18.5752 173.407C19.0464 174.154 20.0679 174.92 21.1956 174.837C22.101 174.773 22.7671 174.693 23.7237 174.185C25.5451 173.217 27.0294 172.173 28.1815 171.045C30.5099 168.765 31.4815 166.142 31.1371 163.117C31.1251 163.014 31.083 162.931 31.0647 162.834C34.8528 163.451 37.9255 164.19 40.865 164.916C42.6372 165.353 44.3883 165.777 46.2272 166.155C43.3193 167.515 40.6861 169.227 38.2191 171.389C37.8382 171.404 37.5482 171.687 37.4862 172.047C35.3861 173.989 33.3886 176.262 31.4249 178.955C29.4503 178.149 26.7405 178.557 24.8582 179.211C22.1412 180.154 20.2425 181.958 19.214 184.575C18.9269 185.303 18.9172 185.96 19.1795 186.578C19.4501 187.214 19.9951 187.7 20.756 187.985C23.9993 189.196 26.9603 188.884 29.8093 187.032C30.2582 186.741 30.6631 186.419 31.0242 186.065C31.7062 185.397 32.2285 184.619 32.5866 183.743C33.3482 181.869 33.1939 180.685 32.6842 179.931C34.2464 177.783 35.829 175.918 37.466 174.276C37.4673 175.075 37.4842 175.876 37.4752 176.675C37.4532 178.531 37.4309 180.45 37.542 182.352C37.5538 182.542 37.6382 182.703 37.7561 182.834C37.2349 183.379 36.9181 184.406 36.7577 186.037L36.757 186.037C36.7376 186.244 36.7147 186.398 36.6977 186.529C36.6341 186.985 36.6069 187.255 36.7363 187.948C36.9598 189.142 37.902 190.363 38.3349 190.885C38.4444 191.039 38.6488 191.33 39.1247 191.487C39.6205 191.653 40.2971 191.504 40.7464 191.064C40.8924 190.921 41.0147 190.747 41.0979 190.544C41.3413 189.951 41.3582 189.384 41.3465 188.955C41.3386 188.69 41.3395 188.394 41.34 188.082C41.3431 186.351 41.3473 184.198 40.1365 183.015C39.7614 182.647 39.4137 182.47 39.1081 182.401L39.1311 182.259C39.079 181.357 39.0585 180.443 39.0521 179.531C39.7888 180.389 40.8414 180.876 41.662 181.23L41.8772 181.324C42.6195 181.648 43.2933 181.707 43.8885 181.759C44.1096 181.777 44.3247 181.795 44.5305 181.83C45.4154 181.983 46.3625 181.848 46.8508 181.753C47.1778 181.689 47.4272 181.567 47.5929 181.405C47.7415 181.26 47.8223 181.08 47.8334 180.882C47.971 180.506 47.8929 180.02 47.4119 179.755C45.4179 178.172 43.0649 177.521 41.0132 177.035C40.4164 176.892 39.637 176.762 39.0642 177.01C39.0662 176.906 39.0649 176.798 39.0656 176.693C39.0812 175.39 39.0817 174.086 39.0532 172.781C41.8427 170.297 44.827 168.407 48.2193 166.991C48.3145 166.951 48.3989 166.894 48.4688 166.826C48.5327 166.763 48.5558 166.675 48.5955 166.596C51.9957 167.168 55.8453 167.533 60.8691 167.438C66.5618 167.33 74.3475 166.603 82.5606 164.997C82.6753 164.986 82.7913 164.989 82.906 164.977C83.0247 164.964 83.13 164.919 83.2261 164.862C87.468 164.011 91.8069 162.922 96.0266 161.563C96.0978 161.787 96.1893 162.01 96.3119 162.223C96.8521 163.172 97.8083 163.722 98.6723 164.134C100.753 165.13 102.966 165.796 105.25 166.117C106.03 166.227 106.812 166.294 107.591 166.341C107.632 166.391 107.668 166.446 107.722 166.486C109.311 167.65 111.11 168.97 113.278 169.385C114.405 169.602 115.547 169.546 116.414 169.472C119.708 169.196 122.434 168.31 124.514 166.84C124.758 166.67 125.017 166.472 125.26 166.235C125.464 166.034 125.658 165.804 125.818 165.536C126.114 165.035 126.237 164.502 126.345 164.029C126.402 163.778 126.462 163.508 126.521 163.23C126.673 163.222 126.823 163.185 126.954 163.086C127.778 162.464 128.563 161.79 129.301 161.068C129.882 160.499 130.435 159.901 130.953 159.276C131.349 158.801 131.798 158.224 132.12 157.556C132.457 156.861 132.622 156.139 132.784 155.444C133.011 154.459 133.297 153.235 133.044 152.03C132.667 150.244 131.231 148.958 130.183 148.02L130.127 147.987C130.572 146.79 131.005 145.554 130.758 144.194C130.524 142.899 129.661 141.671 128.262 140.64C126.696 139.485 124.909 138.799 123.179 138.137Z" fill="white"/>
<path fill-rule="evenodd" clip-rule="evenodd" d="M179.124 62.7421L179.193 61.447C179.207 61.1758 179.083 60.9167 178.864 60.7586C178.644 60.6004 178.358 60.5642 178.106 60.6636C173.516 62.4658 170.441 67.3502 170.788 72.2687C170.88 73.563 172.099 75.8965 173.533 76.3424C174.734 76.7162 175.975 76.6907 177.045 76.6375C179.728 76.5048 182.407 76.1236 185.011 75.505C185.868 75.3 186.829 75.0241 187.538 74.3293C187.607 74.2618 187.675 74.1921 187.739 74.1158C188.155 73.6189 188.299 73.0421 188.135 72.5331C188.002 72.1234 187.703 71.8633 187.524 71.7084L186.457 70.7809C188.647 68.6322 189.95 65.6177 189.986 62.5432C189.99 62.3032 189.996 61.8058 189.651 61.395C189.268 60.9391 188.694 60.8871 188.449 60.8648C185.345 60.5756 181.901 61.2842 179.124 62.7421Z" fill="white"/>
<path fill-rule="evenodd" clip-rule="evenodd" d="M103.819 117.234C102.488 117.065 101.969 117.657 101.774 118.025C101.533 118.488 101.608 118.966 101.651 119.248L101.993 121.458L101.961 121.451C100.238 120.999 98.2503 121.555 96.6408 122.935C95.3135 124.082 94.4054 125.57 93.5198 127.127C92.6452 128.672 93.1355 129.512 93.5053 129.875C93.9402 130.302 94.5206 130.371 94.8684 130.414C98.9857 130.912 103.244 131.428 107.506 131.161C108.599 131.091 109.76 130.964 110.843 130.503C112.178 129.932 113.117 129.307 113.765 128.672C114.985 127.478 115.177 126.249 115.043 125.288C114.502 121.429 107.861 117.741 103.819 117.234Z" fill="white"/>
<path fill-rule="evenodd" clip-rule="evenodd" d="M128.338 82.8103C128.249 82.2274 128.148 81.5679 128.315 81.0486L128.328 81.0031C128.37 80.8445 128.437 80.7185 128.536 80.6219C128.857 80.308 129.51 80.2867 130.675 80.3681C130.985 80.3892 131.305 80.4107 131.526 80.5134C132.035 80.7528 132.285 81.529 132.479 82.2374C132.557 82.5208 132.637 82.8117 132.616 83.0374C132.576 83.4942 132.092 83.8649 131.639 83.9981C131.011 84.1796 130.262 84.0757 129.61 83.9631C129.179 83.8903 128.714 83.7819 128.541 83.5432C128.425 83.3836 128.379 83.0796 128.338 82.8103ZM132.082 85.5271C132.607 85.3755 133.066 85.1034 133.422 84.7544C133.865 84.3213 134.149 83.7688 134.203 83.1808C134.249 82.6684 134.119 82.1964 134.016 81.8169C133.807 81.0575 133.418 79.6427 132.202 79.0729C131.709 78.8415 131.195 78.8079 130.639 78.7699C129.483 78.6892 127.335 78.5352 126.793 80.5827C126.52 81.4516 126.654 82.3374 126.765 83.0507C126.825 83.4525 126.908 84.0045 127.252 84.4778C127.758 85.1762 128.554 85.3977 129.341 85.5327C130.168 85.6753 131.131 85.8028 132.082 85.5271Z" fill="white"/>
<path fill-rule="evenodd" clip-rule="evenodd" d="M87.8232 153.514C87.9013 153.794 87.9821 154.085 87.9597 154.312C87.9208 154.77 87.4366 155.14 86.9827 155.274C86.3552 155.454 85.6056 155.35 84.9534 155.238C84.5217 155.164 84.0566 155.056 83.8848 154.818C83.7685 154.658 83.7225 154.354 83.6812 154.086C83.5891 153.473 83.4922 152.839 83.659 152.323L83.6721 152.278C83.7141 152.12 83.7802 151.993 83.8791 151.896C84.1998 151.582 84.8524 151.561 86.0182 151.643C86.3281 151.663 86.6483 151.685 86.8697 151.789C87.3791 152.028 87.6285 152.803 87.8232 153.514ZM82.1369 151.858C81.8646 152.722 81.9998 153.611 82.1078 154.325C82.1687 154.727 82.2518 155.279 82.5948 155.753C83.1016 156.451 83.8979 156.672 84.6844 156.807C85.5118 156.95 86.4749 157.078 87.426 156.802C87.9502 156.65 88.4106 156.378 88.7672 156.029C89.2092 155.596 89.4923 155.044 89.546 154.458C89.594 153.943 89.4637 153.47 89.3588 153.092C89.1499 152.332 88.7617 150.917 87.5457 150.348C87.0528 150.117 86.5384 150.082 85.9817 150.044C84.8263 149.963 82.6797 149.811 82.1369 151.858Z" fill="white"/>
<path fill-rule="evenodd" clip-rule="evenodd" d="M149.062 85.6724C148.845 85.3322 148.673 84.7871 149.084 84.1262C149.317 83.7512 149.875 83.4967 150.538 83.4586C151.295 83.4159 152.019 83.6597 152.342 84.0659C152.656 84.4619 152.681 85.1033 152.4 85.5914C152.114 86.0831 151.54 86.441 150.898 86.52C150.178 86.607 149.441 86.2669 149.062 85.6724ZM151.09 88.0998C151.919 87.999 152.674 87.6355 153.233 87.089C153.447 86.8794 153.632 86.6439 153.78 86.3854C154.383 85.3381 154.304 83.9772 153.589 83.076C152.94 82.2594 151.737 81.7974 150.448 81.8689C149.241 81.9383 148.246 82.4492 147.733 83.284C147.089 84.3174 147.085 85.5309 147.719 86.5276C148.42 87.6281 149.775 88.2603 151.09 88.0998Z" fill="white"/>
<path fill-rule="evenodd" clip-rule="evenodd" d="M84.0621 171.253C83.7766 171.746 83.2023 172.104 82.5603 172.182C81.8403 172.269 81.1035 171.928 80.7242 171.333C80.5072 170.993 80.3348 170.448 80.7467 169.788C80.9741 169.408 81.5378 169.16 82.2001 169.12C82.9572 169.078 83.6815 169.322 84.0043 169.728C84.3181 170.123 84.3426 170.765 84.0621 171.253ZM79.3955 168.946C78.7513 169.98 78.7458 171.192 79.3818 172.189C80.0825 173.29 81.4371 173.922 82.7518 173.762C83.5812 173.661 84.3367 173.298 84.8947 172.751C85.1088 172.542 85.2937 172.306 85.4425 172.048C86.0453 171 85.9666 169.639 85.251 168.738C84.6031 167.921 83.3991 167.458 82.11 167.53C80.9033 167.6 79.9072 168.11 79.3955 168.946Z" fill="white"/>
<path fill-rule="evenodd" clip-rule="evenodd" d="M98.5052 172.128C98.5393 172.66 98.2585 173.183 97.8077 173.433C97.5578 173.571 97.1669 173.669 96.7149 173.348C96.4624 173.169 96.3063 172.752 96.308 172.26C96.3098 171.76 96.4795 171.275 96.7321 171.028C96.7618 170.999 96.7924 170.974 96.8233 170.952C97.1067 170.753 97.5672 170.766 97.8939 170.982C98.2419 171.211 98.4758 171.649 98.5052 172.128ZM95.9108 169.648C95.1781 170.161 94.7195 171.159 94.7162 172.254C94.7128 173.287 95.1052 174.159 95.7932 174.646C96.6477 175.253 97.6903 175.319 98.5808 174.825C98.8102 174.698 99.0165 174.54 99.1993 174.361C99.8092 173.764 100.149 172.912 100.095 172.03C100.034 171.047 99.5388 170.158 98.7687 169.65C97.9004 169.079 96.7241 169.077 95.9108 169.648Z" fill="white"/>
<path fill-rule="evenodd" clip-rule="evenodd" d="M142.799 145.753C143.228 145.001 144.177 144.582 145.139 144.239C145.779 144.011 146.439 143.835 147.095 143.652C146.886 143.794 146.682 143.954 146.497 144.144C145.978 144.678 145.676 145.329 145.411 145.95C144.728 147.546 144.43 149.744 144.607 151.564C144.534 151.667 144.471 151.775 144.406 151.885C143.562 150.79 142.952 149.506 142.656 148.157C142.429 147.126 142.477 146.316 142.799 145.753ZM153.299 141.107C154.049 140.546 154.898 139.909 155.784 139.812C156.823 139.689 157.926 140.332 158.771 140.9C158.999 141.053 159.261 141.245 159.481 141.459C158.703 141.507 157.761 141.771 156.613 142.43C156.274 142.626 155.971 142.873 155.642 143.084C155.554 143.018 155.453 142.965 155.339 142.935C154.112 142.61 152.842 142.493 151.578 142.538C152.128 142.052 152.683 141.566 153.299 141.107ZM163.269 141.263C164.69 141.631 166.087 142.144 167.421 142.785C167.858 142.996 168.344 143.252 168.596 143.605C168.882 144.011 168.926 144.626 168.931 145.233C168.948 147.045 168.688 148.843 168.158 150.576C167.882 151.479 167.522 152.373 167.151 153.257C167.175 153.119 167.219 152.98 167.237 152.842C167.313 152.278 167.373 151.537 167.155 150.794C166.785 149.528 165.65 148.585 164.368 148.395C164.214 146.663 163.714 144.961 162.836 143.445C162.576 142.995 162.227 142.503 161.733 142.114L161.737 142.087C161.7 141.657 161.54 141.294 161.34 140.96C161.994 140.977 162.659 141.105 163.269 141.263ZM167.764 158.065C167.572 158.824 167.199 159.535 166.857 160.129C165.593 162.34 164.118 163.937 162.474 164.876C162.211 165.028 161.903 165.186 161.618 165.214C161.364 165.24 161.052 165.17 160.748 165.105C159.393 164.813 158.207 164.484 157.347 163.825C158.353 163.099 159.128 162.218 159.63 161.231C160.221 161.216 160.813 161.186 161.407 161.105C161.964 161.031 162.612 160.906 163.2 160.55C163.781 160.196 164.196 159.679 164.559 159.173C165.012 158.54 165.39 157.903 165.733 157.265L165.741 157.266C166.36 157.266 166.99 156.988 167.474 156.479C167.648 156.299 167.768 156.093 167.893 155.891C167.952 156.632 167.939 157.371 167.764 158.065ZM154.665 166.975C154.22 167.091 153.745 167.201 153.291 167.205C152.801 167.21 152.273 167.1 151.761 166.989C150.997 166.826 150.206 166.66 149.642 166.236C149.139 165.856 148.813 165.26 148.54 164.558C148.865 165.015 149.252 165.429 149.785 165.703C150.266 165.948 150.771 166.039 151.273 166.039C151.878 166.039 152.479 165.907 153.031 165.758C154.089 165.466 154.95 165.15 155.715 164.79C156.228 165.307 156.834 165.675 157.467 165.964C156.556 166.366 155.625 166.723 154.665 166.975ZM157.903 151.836C157.85 151.978 157.796 152.11 157.737 152.228C157.463 151.741 157.096 151.302 156.715 150.886C156.422 150.57 156.08 150.291 155.735 150.013C155.207 149.588 154.75 149.219 154.604 148.758L154.578 148.648C154.706 148.622 154.825 148.573 154.931 148.493C155.165 148.428 155.417 148.394 155.685 148.435C156.153 148.506 156.644 148.736 157.145 149.12C157.52 149.407 157.992 149.863 158.111 150.403C158.192 150.772 158.126 151.23 157.903 151.836ZM151.272 149.133L151.279 149.099C151.345 148.883 151.424 148.727 151.514 148.639C151.599 148.556 151.751 148.482 151.966 148.42C152.234 148.342 152.517 148.336 152.798 148.339C152.765 148.635 152.787 148.958 152.897 149.302C153.206 150.278 153.953 150.879 154.612 151.41C154.887 151.633 155.165 151.853 155.398 152.105C155.588 152.312 155.764 152.525 155.924 152.742C155.756 152.72 155.593 152.692 155.414 152.685C155.161 152.672 154.906 152.672 154.652 152.674C154.208 152.685 153.79 152.68 153.408 152.605C152.655 152.463 151.968 151.987 151.568 151.329C151.174 150.683 151.065 149.864 151.272 149.133ZM145.828 152.972C146.202 152.19 147.025 151.607 147.699 151.184C148.252 150.841 148.825 150.535 149.41 150.257C149.469 150.964 149.67 151.661 150.038 152.264C150.697 153.347 151.833 154.134 153.071 154.369C153.624 154.476 154.15 154.479 154.661 154.468C154.886 154.468 155.111 154.467 155.334 154.476C155.988 154.505 156.452 154.65 156.713 154.91L156.832 154.99C156.805 155.368 156.739 155.904 156.497 156.081C156.368 156.176 156.096 156.23 155.914 156.269C153.862 156.697 151.76 156.894 149.659 156.861C148.784 156.847 147.873 156.786 147.144 156.428C145.907 155.824 145.267 154.145 145.828 152.972ZM155.992 162.604C155.104 163.179 154.044 163.617 152.557 164.025C151.878 164.213 151.115 164.367 150.601 164.104C150.207 163.903 149.898 163.419 149.624 162.927C148.847 161.525 148.249 160.041 147.832 158.501C148.432 158.609 149.041 158.646 149.631 158.655C149.79 158.657 149.95 158.659 150.11 158.659C150.208 159.429 150.704 160.117 151.321 160.498C152.068 160.958 152.898 161.048 153.685 161.099C154.949 161.181 156.218 161.206 157.484 161.228C157.006 161.82 156.461 162.302 155.992 162.604ZM163.299 154.643C163.952 153.265 164.313 151.769 164.406 150.257C164.882 150.431 165.294 150.817 165.435 151.298C165.558 151.717 165.513 152.215 165.462 152.601C165.215 154.424 164.42 156.282 163.103 158.127C162.869 158.454 162.591 158.82 162.271 159.015C161.965 159.201 161.541 159.278 161.168 159.329C160.023 159.481 158.811 159.464 157.64 159.438C156.361 159.415 155.079 159.392 153.801 159.307C153.217 159.269 152.658 159.215 152.261 158.969C152.101 158.87 151.996 158.716 151.935 158.566C153.394 158.478 154.849 158.323 156.276 158.026C156.696 157.939 157.14 157.83 157.55 157.534C158.183 157.072 158.419 156.387 158.53 155.773L158.764 155.885C159.217 156.1 160.001 156.477 160.843 156.477C161.238 156.477 161.646 156.393 162.037 156.172C162.683 155.806 163.037 155.196 163.299 154.643ZM160.589 143.474C160.874 143.673 161.101 144.026 161.287 144.345C162.951 147.22 163.101 150.873 161.68 153.875C161.547 154.154 161.368 154.49 161.155 154.609C160.79 154.823 160.098 154.534 159.535 154.265L158.77 153.898C159.093 153.526 159.367 153.048 159.585 152.457C159.803 151.862 160.069 150.963 159.861 150.017C159.673 149.157 159.125 148.375 158.233 147.695C157.491 147.126 156.723 146.777 155.954 146.661C155.383 146.571 154.825 146.631 154.314 146.797C154.171 146.748 154.032 146.696 153.884 146.66C155.009 145.662 156.198 144.739 157.506 143.987C158.289 143.538 159.732 142.868 160.589 143.474ZM147.782 145.393C148.234 144.93 148.979 144.713 149.5 144.593C150.869 144.269 152.294 144.221 153.684 144.43C152.838 145.1 152.031 145.819 151.282 146.599C151.216 146.668 151.176 146.748 151.137 146.828C150.796 146.965 150.495 147.129 150.265 147.351C150.046 147.565 149.882 147.843 149.741 148.155C148.71 148.572 147.703 149.067 146.751 149.661C146.629 149.738 146.497 149.831 146.368 149.918C146.435 148.764 146.667 147.571 147.059 146.656C147.266 146.17 147.477 145.709 147.782 145.393ZM143.146 159.351C142.86 157.93 142.967 156.402 143.073 154.922L143.193 153.215C143.395 153.463 143.613 153.697 143.835 153.926C143.835 155.377 144.569 156.834 145.801 157.694C146.126 159.265 146.616 160.792 147.278 162.247C147.145 162.236 147.011 162.22 146.881 162.21C145.92 162.132 145.014 162.059 144.363 161.599C143.625 161.077 143.294 160.087 143.146 159.351ZM141.603 150.594L141.574 150.693L141.285 154.797C141.172 156.393 141.054 158.046 141.389 159.706C141.692 161.22 142.363 162.38 143.327 163.064C144.288 163.746 145.413 163.884 146.443 163.972C146.799 165.148 147.291 166.71 148.566 167.669C149.446 168.332 150.523 168.562 151.39 168.746C151.952 168.864 152.589 169 153.253 169H153.312C153.958 168.993 154.563 168.857 155.12 168.71C156.659 168.307 158.154 167.722 159.566 166.97C159.678 166.91 159.771 166.83 159.845 166.736C160.019 166.777 160.207 166.822 160.369 166.858C160.692 166.929 161.08 167.014 161.502 167.014C161.597 167.014 161.695 167.008 161.794 167C162.416 166.938 162.96 166.666 163.363 166.436C165.288 165.333 166.987 163.514 168.412 161.024C168.79 160.362 169.256 159.48 169.502 158.504C169.976 156.624 169.599 154.724 169.268 153.049L169.22 152.936C169.456 152.335 169.681 151.725 169.871 151.102C170.455 149.193 170.742 147.213 170.724 145.215C170.716 144.362 170.631 143.38 170.058 142.568C169.584 141.899 168.884 141.5 168.199 141.17C166.759 140.475 165.252 139.922 163.717 139.524C162.504 139.211 161.087 138.967 159.695 139.364C158.605 138.639 157.171 137.841 155.588 138.027C154.216 138.179 153.113 139.006 152.226 139.67C151.616 140.126 151.066 140.6 150.53 141.072C148.491 141.368 146.475 141.859 144.538 142.55C143.314 142.984 141.965 143.599 141.242 144.862C140.694 145.825 140.58 147.062 140.906 148.543C141.062 149.248 141.312 149.929 141.603 150.594Z" fill="white"/>
</svg>
