<svg width="130" height="181" viewBox="0 0 130 181" fill="none" xmlns="http://www.w3.org/2000/svg">
<path fill-rule="evenodd" clip-rule="evenodd" d="M135.255 21.0263C134.758 21.7557 134.149 22.2531 133.392 22.5424C132.861 22.7453 132.492 22.8112 132.217 22.8079C132.381 22.6691 132.543 22.529 132.698 22.3778C133.606 21.4881 134.357 20.3691 135.005 18.9486C135.488 17.8937 135.8 16.879 136.043 15.9127C136.594 17.7528 136.342 19.4309 135.255 21.0263ZM131.453 22.3042C131.042 21.2453 131.3 19.5795 131.738 18.3978C132.05 17.5552 132.486 16.8599 133.053 16.3045C133.583 15.7861 134.227 15.3892 134.992 15.1069C135.297 14.9941 135.453 15.0317 135.566 15.0829C135.69 15.1383 135.786 15.2631 135.866 15.4228C135.588 16.6082 135.269 17.6859 134.746 18.8304C133.96 20.548 133.012 21.7926 131.823 22.7366C131.587 22.6298 131.504 22.4349 131.453 22.3042ZM133.888 28.1079C134.012 28.028 134.396 27.8553 135.469 27.7716C135.637 27.759 135.763 27.7446 135.868 27.7318C136.117 27.7032 136.183 27.695 136.52 27.7656C136.915 27.848 137.513 28.2019 138.044 28.6688C138.081 28.7003 138.117 28.7283 138.136 28.7489C137.953 28.8188 137.758 28.8417 137.461 28.8267C137.261 28.8172 137.037 28.8126 136.801 28.8085C135.829 28.7893 134.497 28.7639 133.997 28.2303C133.944 28.1732 133.911 28.1291 133.888 28.1079ZM130.805 30.5072L130.87 30.6681C131.021 31.032 131.044 31.3841 131.068 31.7566C131.081 31.949 131.094 32.134 131.12 32.3127C131.141 32.4543 131.148 32.604 131.144 32.7503C130.521 31.6463 130.218 30.4131 129.98 29.3089C129.954 29.1895 129.937 29.0894 129.926 29.0056C130.343 29.3708 130.597 29.9936 130.805 30.5072ZM129.404 67.2818C129.53 67.1891 129.644 67.0918 129.748 66.9902C130.248 66.5007 130.504 65.9179 130.702 65.3239C131.135 65.7729 131.655 66.1508 132.15 66.4928C132.633 66.8264 133.091 67.1417 133.402 67.4833C133.825 67.9471 134.206 68.455 134.537 68.9907L134.561 69.0345C134.878 69.5544 135.15 70.1 135.363 70.6589C135.379 70.7006 135.39 70.7375 135.398 70.7688L128.442 71.4898C127.287 71.6101 126.094 71.7342 125 71.4268C123.292 70.9462 121.985 69.3201 121.873 67.551C122.006 67.6314 122.126 67.7255 122.269 67.7921C124.095 68.6386 127.609 68.6003 129.404 67.2818ZM121.198 64.8828C121.087 64.1407 121.378 63.3091 122.115 62.264C123.896 59.7325 126.422 58.1755 128.868 58.0987L129.1 58.0935C129.684 58.0828 130.347 58.0722 130.91 57.6597L131.032 57.5649L131.086 57.5182C131.747 58.1498 131.683 59.3024 131.425 60.1023C131.217 60.751 130.958 61.3683 130.684 62.0224C130.448 62.5853 130.214 63.1687 130.007 63.7677C129.988 63.8052 129.977 63.8445 129.966 63.8855C129.933 63.9843 129.893 64.0786 129.863 64.1779L129.781 64.4483C129.535 65.2654 129.344 65.915 128.727 66.3617C127.329 67.3893 124.219 67.4379 122.75 66.7569C121.906 66.3653 121.312 65.6466 121.198 64.8828ZM133.429 58.7979C133.163 59.129 132.957 59.537 132.832 59.9609C132.362 61.5455 132.322 63.231 132.714 64.8343C132.786 65.1287 132.89 65.4453 133.058 65.7385C132.97 65.6775 132.885 65.6126 132.798 65.5523C132.118 65.0829 131.436 64.5942 131.135 64.0008C131.317 63.4904 131.517 62.9863 131.737 62.4642C132.008 61.8166 132.289 61.1466 132.512 60.4521C132.661 59.9916 132.751 59.4646 132.748 58.9348C132.963 58.8401 133.194 58.8017 133.429 58.7979ZM134.197 65.3756C133.998 65.1937 133.896 64.8633 133.822 64.5632C133.751 64.2681 133.695 63.9688 133.656 63.6686C133.901 63.5862 134.097 63.4114 134.219 63.3007L134.267 63.2584L134.281 63.3263L134.555 64.7713C134.646 65.2497 134.593 65.3817 134.55 65.4596C134.506 65.5004 134.32 65.4875 134.197 65.3756ZM135.458 60.5947C135.719 62.4105 136.211 64.1891 136.916 65.88L136.964 65.9923C137.127 66.3815 137.282 66.7493 137.308 67.1077C137.332 67.4357 137.214 67.7462 137.022 67.8595C136.913 67.9236 136.748 67.9569 136.574 67.9925C136.328 68.042 136.083 68.0482 135.837 68.0562C135.663 68.062 135.484 68.0715 135.302 68.0891C134.982 67.6056 134.634 67.1406 134.246 66.7138C134.199 66.6624 134.135 66.6186 134.084 66.5687C134.508 66.6798 134.983 66.6204 135.334 66.2893C135.875 65.7118 135.744 64.9132 135.676 64.558L135.403 63.1128C135.246 62.2895 134.817 62.0631 134.486 62.0179C134.102 61.9647 133.809 62.1535 133.594 62.3325C133.618 61.6412 133.728 60.9522 133.927 60.2847C134.095 59.7161 134.474 59.1616 134.818 59.2193C135.118 59.2707 135.332 59.7327 135.458 60.5947ZM113.499 77.0526C112.634 76.278 111.634 75.6017 110.433 75.3259C110.374 75.3123 110.316 75.3164 110.259 75.3214C110.179 73.9503 109.891 72.68 109.653 71.7687C109.366 70.6728 108.934 69.4627 107.909 68.7989C107.198 68.3387 106.364 68.2476 105.546 68.2419C105.528 68.2146 105.518 68.1848 105.494 68.161C105.318 67.9783 105.159 67.7745 104.999 67.5698C106.426 67.2446 107.706 67.0384 108.807 67.5074C109.659 67.8707 110.356 68.6462 110.97 69.329C111.397 69.8047 111.839 70.2957 112.142 70.8363C112.43 71.3505 112.614 71.949 112.755 72.4668C113.163 73.9612 113.406 75.5021 113.499 77.0526ZM114.308 79.512C114.578 79.8099 114.857 80.1186 115.007 80.4519C115.18 80.8365 115.206 81.3021 115.207 81.7058C115.217 84.0037 114.444 86.5057 112.908 89.1431C112.518 89.8142 111.983 90.6693 111.286 91.351L111.272 91.365C110.254 92.3533 108.902 92.9738 107.562 93.4698C107.619 93.3948 107.68 93.3182 107.736 93.243C108.102 92.755 108.516 92.2024 108.716 91.5219C108.939 90.7589 108.796 90.0017 108.375 89.468C108.876 88.6897 109.343 87.8561 109.757 86.9425C110.017 86.3711 110.296 85.6979 110.312 84.9518C110.328 84.2353 110.094 83.5656 109.863 83.0049C109.571 82.2932 109.223 81.6093 108.852 80.9417C109.906 79.4517 110.214 77.7552 110.273 76.5592L110.271 76.467C111.802 76.8569 113.008 78.0744 114.308 79.512ZM103.958 96.1088C102.485 97.6886 100.784 99.0299 98.8996 100.093C98.2192 100.478 97.4924 100.825 96.7845 100.76C96.1699 100.703 95.5667 100.322 95.0492 99.9699C93.602 98.9827 92.2456 97.8484 91.0168 96.599C90.2793 95.8494 89.5231 94.9574 89.1082 93.9324C89.7588 94.0898 90.4429 94.1113 91.093 93.8078C91.1532 93.7799 91.2059 93.7421 91.2508 93.6982L91.2574 93.6859C91.2862 93.7008 91.3109 93.721 91.3401 93.735C91.9935 94.0389 92.7016 94.0818 93.3085 94.0835C95.4179 94.0883 97.4953 93.564 99.3677 92.6294C100.144 93.8481 101.721 94.5254 103.132 94.1821C103.926 93.9899 104.585 93.5339 105.069 93.158C105.47 92.8492 105.856 92.5124 106.227 92.149C106.73 91.6564 107.195 91.0976 107.642 90.5088C107.693 90.7369 107.682 90.9894 107.62 91.2015C107.479 91.6826 107.146 92.1277 106.823 92.5578C105.922 93.7579 104.992 94.9995 103.958 96.1088ZM85.0901 89.7374C84.6193 88.6653 84.7752 87.3678 84.9118 86.2229C85.04 85.142 85.2547 84.1 85.4612 83.0914C85.5198 82.8048 85.5766 82.5072 85.6346 82.2145C86.3611 83.971 87.4135 85.5904 88.7564 86.9417C88.8738 87.0599 89.0315 87.1111 89.1868 87.1038C89.1508 87.6879 89.1268 88.2719 89.1287 88.858C89.1326 90.6257 89.5174 91.972 90.2398 92.8562C89.5732 92.9655 88.7961 92.6708 88.1567 92.3567C87.0192 91.799 85.6421 90.9954 85.0901 89.7374ZM83.318 76.29C83.0864 75.029 82.9531 73.7242 83.5401 72.7172C83.9829 71.9595 84.8604 71.368 86.1504 70.9602C87.9809 70.3805 89.9674 70.3094 91.8533 70.6884C91.7956 70.7614 91.7252 70.8219 91.6714 70.8994C91.4889 71.1661 91.3488 71.4516 91.2268 71.7407C89.3093 72.5725 87.2535 74.1615 86.0503 75.7691C85.6054 76.3624 85.1531 77.0048 84.9387 77.7641C84.7434 78.454 84.7807 79.152 84.8856 79.7793C84.8217 80.3069 84.7389 80.8263 84.6451 81.336C84.0788 79.6892 83.6321 77.999 83.318 76.29ZM97.7289 64.9367C98.6418 64.6299 99.9592 64.3697 101.058 64.8758C102.022 65.3199 102.66 66.2456 103.335 67.2254C103.584 67.5863 103.846 67.9472 104.123 68.2994C101.94 68.4325 99.7859 68.8395 97.7075 69.547C96.1721 68.7518 94.2806 68.8574 92.8844 69.7463C92.0614 69.5227 91.2152 69.4014 90.36 69.3498L93.1003 67.4983C94.5583 66.5142 96.066 65.4965 97.7289 64.9367ZM91.0508 82.502C91.349 82.9752 91.724 83.3909 92.1588 83.7401C92.2562 84.3322 92.4994 84.9174 92.9087 85.4302C93.4247 86.0773 94.1605 86.6033 95.0934 86.9919C96.1961 87.4513 97.1957 87.5446 98.0651 87.2692C98.711 87.0644 99.2339 86.666 99.6393 86.2691C99.834 86.0784 100.002 85.8876 100.143 85.7188C100.767 84.9699 101.105 84.2505 101.177 83.5673L102.576 84.5278C103.35 85.0589 104.068 85.6485 104.073 86.3511C104.077 86.7689 103.812 87.2091 103.553 87.5833C101.264 90.8982 97.3388 92.9507 93.3111 92.9419C92.8291 92.9413 92.2755 92.911 91.8215 92.6996C90.545 92.1058 90.2731 90.2807 90.2695 88.8548C90.2657 86.7108 90.5389 84.5811 91.0508 82.502ZM97.6074 82.458C97.2074 82.3674 96.8053 82.2118 96.3803 82.0471C95.48 81.6977 94.5503 81.3384 93.5261 81.5623C92.9599 81.6838 92.5357 81.95 92.309 82.2994C91.9432 81.8556 91.6627 81.3406 91.5263 80.7831C91.4457 80.4518 91.4321 80.1858 91.4857 79.9693C91.5403 79.7556 91.6815 79.532 91.9021 79.2911C91.9296 79.2643 91.9588 79.2415 91.98 79.2096C92.6758 78.4812 93.7001 78.0732 94.7079 78.0989C95.7335 78.124 96.747 78.6033 97.4171 79.3811C97.7407 79.757 97.9939 80.2006 98.2614 80.6701C98.4055 80.9224 98.5493 81.1746 98.705 81.4188C99.0177 81.9096 99.356 82.3067 99.7163 82.6116C99.0721 82.7411 98.3309 82.6209 97.6074 82.458ZM93.8011 84.7184C93.5466 84.4 93.3839 84.0375 93.3022 83.6761C93.3528 83.5159 93.3376 83.3448 93.2498 83.2043C93.2503 83.1074 93.2462 83.0093 93.2617 82.9168L93.284 82.8888C93.3441 82.8299 93.5089 82.7334 93.7691 82.6775C94.458 82.5266 95.1914 82.8103 95.9675 83.1112C96.4133 83.2835 96.8734 83.4618 97.3558 83.5716C98.2326 83.7696 99.1446 83.9113 100 83.7224C99.8938 84.1054 99.6481 84.5285 99.2666 84.9878C98.7212 85.639 98.2308 86.0194 97.7195 86.1816C97.116 86.373 96.3793 86.291 95.5317 85.9379C94.7784 85.6244 94.1964 85.2142 93.8011 84.7184ZM97.5273 70.7381C98.3896 71.3197 99.0202 72.2549 99.5734 73.1782C100.848 75.3065 101.889 77.5825 102.667 79.9418C102.777 80.2759 102.867 80.5735 102.839 80.8375C102.777 81.4276 102.126 81.9003 101.519 82.2958L101.47 82.3433C101.398 82.2548 101.306 82.1805 101.187 82.148C101.097 82.1235 101.008 82.0777 100.919 82.035C100.887 82.0226 100.858 82.0021 100.824 81.9954C100.422 81.7758 100.033 81.3795 99.6668 80.8046C99.5216 80.5765 99.3872 80.3404 99.2532 80.1047C98.9708 79.609 98.6782 79.0953 98.2812 78.6345C97.4042 77.6183 96.0798 76.9914 94.7359 76.9568C93.7583 76.9331 92.7786 77.2311 91.9581 77.7668C91.8457 76.7587 91.7816 75.7436 91.8165 74.7315C91.8512 73.7384 91.973 72.4786 92.6137 71.5443C93.6323 70.0784 95.9666 69.6853 97.5273 70.7381ZM86.0369 78.0747C86.1988 77.504 86.568 76.9822 86.9639 76.4536C87.8662 75.2517 89.3524 74.0229 90.8239 73.2117C90.7397 73.7289 90.6917 74.2373 90.6757 74.6917C90.6293 76.033 90.7175 77.382 90.9163 78.7097C90.6578 79.0322 90.4632 79.3555 90.3791 79.6927C90.2885 80.0506 90.3036 80.4528 90.3951 80.9018C90.3114 80.9719 90.24 81.0591 90.2081 81.1729C89.7662 82.6999 89.476 84.2626 89.3053 85.8393C87.8968 84.3346 86.8271 82.5199 86.231 80.5465C85.9118 79.4903 85.8521 78.7282 86.0369 78.0747ZM104.37 92.2549C103.976 92.562 103.447 92.9314 102.863 93.0729C101.95 93.2951 100.895 92.855 100.363 92.0775C101.266 91.5306 102.114 90.8942 102.869 90.1547C103.468 89.5684 104.013 88.9256 104.493 88.2326C104.853 87.7112 105.221 87.078 105.215 86.3415C105.203 84.9469 103.865 84.0284 103.222 83.5863L102.439 83.0495C102.673 82.8888 102.926 82.7048 103.171 82.4646C103.567 82.0768 103.908 81.5802 103.974 80.9562C104.025 80.4671 103.891 80.0098 103.751 79.5845C103.174 77.8339 102.451 76.1307 101.604 74.493C101.949 74.1529 102.597 74.1689 103.038 74.4075C103.612 74.7171 104.032 75.3002 104.446 75.9214C105.277 77.1646 106.064 78.4723 106.83 79.746C107.543 80.9308 108.281 82.1574 108.808 83.4392C108.993 83.891 109.182 84.4201 109.17 84.9273C109.159 85.4578 108.931 86.0029 108.718 86.4714C107.594 88.9498 106.135 90.8996 104.37 92.2549ZM109.132 76.5026C109.086 77.4225 108.883 78.6802 108.218 79.8353L108.213 79.8351C108.077 79.6059 107.941 79.3763 107.804 79.1498C107.036 77.8733 106.241 76.5526 105.397 75.2876C104.918 74.5713 104.384 73.8365 103.58 73.4024C102.849 73.0072 101.793 72.9394 101.045 73.4682C100.881 73.1755 100.724 72.8786 100.552 72.5911C100.087 71.8142 99.5659 71.0258 98.8937 70.382C100.964 69.7606 103.1 69.4113 105.262 69.3788C106.108 69.3663 106.776 69.4259 107.288 69.7566C107.984 70.2084 108.305 71.1297 108.548 72.0578C109.01 73.8198 109.195 75.2317 109.132 76.5026ZM104.543 41.2469C102.591 41.2828 100.795 40.9428 99.053 40.2079C97.7383 39.654 96.7518 38.8801 96.1198 37.9072C95.4691 36.9048 95.4417 35.4537 96.0567 34.6037C96.0831 34.5663 96.1132 34.5395 96.1403 34.5054C96.0641 35.3057 96.2985 36.1078 96.8246 36.7322C98.3309 38.5204 100.432 39.2012 102.456 39.7448C104.083 40.1819 105.701 40.5545 107.546 40.3722C107.475 40.428 107.406 40.4825 107.306 40.5476C106.635 40.9774 105.653 41.2251 104.543 41.2469ZM98.3272 36.0127C101.865 37.7385 104.874 39.0344 107.742 40.0639C105.849 40.2951 104.194 39.9161 102.531 39.4696C100.55 38.937 98.4953 38.2732 97.0432 36.5491C96.5925 36.014 96.3656 35.336 96.4008 34.6518C96.9154 35.1723 97.6008 35.6581 98.3272 36.0127ZM101.136 34.5763C103.18 35.6595 105.217 37.1232 107.189 38.9255C107.634 39.3318 107.871 39.6277 107.919 39.821C105.036 38.7907 102.015 37.4946 98.4521 35.7562C97.6527 35.3661 96.9042 34.8103 96.3996 34.2324L96.3942 34.2306C96.9308 33.7363 97.5765 33.6279 98.4023 33.6458C99.3431 33.6642 100.162 34.0598 101.136 34.5763ZM107.421 35.0051C106.963 33.367 107.032 31.6802 107.61 30.3792C107.634 30.3265 107.651 30.2783 107.657 30.2415C107.727 30.2333 107.976 30.3218 108.136 30.5264C109.144 31.8186 109.756 32.9727 110.124 34.2681C110.424 35.3227 110.497 36.2405 110.348 37.0745C110.257 37.5878 110.053 38.0546 109.757 38.4227L109.684 38.5119C109.587 38.6338 109.441 38.8194 109.473 38.8494C109.472 38.8484 109.426 38.8291 109.337 38.7353C108.472 37.8242 107.898 36.7084 107.421 35.0051ZM105.457 53.1896C104.63 54.4911 103.815 55.1308 102.643 55.3979C101.853 55.5774 101.108 55.39 100.565 54.9306C101.16 54.971 101.772 54.8796 102.369 54.6247C103.231 54.2565 103.986 53.616 104.63 52.9858C104.731 52.8863 104.83 52.7861 104.926 52.6884C105.59 52.0124 105.96 51.5758 106.404 50.7776C106.591 50.4401 106.723 50.0711 106.811 49.6701C106.876 50.9192 105.959 52.3939 105.457 53.1896ZM111.395 50.2945C111.5 51.3892 111.374 52.9396 110.703 54.0018L110.694 54.0172C110.641 54.0049 110.572 53.9775 110.524 53.9324C109.862 53.3164 109.71 52.3002 109.697 51.5556C109.683 50.622 109.777 49.8655 110.002 49.1005C110.076 48.847 110.186 48.4712 110.335 48.3254L110.367 48.2988C110.564 48.1537 110.706 48.1136 110.758 48.1369C110.776 48.1447 111.208 48.3601 111.395 50.2945ZM113.567 40.7118C114.094 39.4308 114.878 38.2303 116.106 36.8192C116.151 36.769 116.196 36.7262 116.235 36.6947C116.274 36.9725 116.157 37.2753 115.943 37.6955L115.835 37.906C115.378 38.8046 114.983 39.5801 114.352 40.4185C114.299 40.4895 114.235 40.5844 114.16 40.6934C113.649 41.4426 113.377 41.6906 113.237 41.7632C113.248 41.6118 113.32 41.3112 113.567 40.7118ZM113.824 21.871C112.132 21.4435 110.649 20.6372 109.292 19.4102C108.669 18.8468 108.118 17.9396 107.923 17.1547C107.749 16.4632 107.819 16.0486 108.191 15.5701C108.222 15.5307 108.255 15.4936 108.289 15.4596C108.666 15.0911 109.239 15.0621 109.672 15.1077C110.324 15.1765 110.958 15.548 111.436 15.8642C112.709 16.7026 113.758 17.6625 114.867 18.6776L115.632 19.3735C115.911 19.6246 116.168 19.9646 116.439 20.3231C116.715 20.6879 117.008 21.0737 117.356 21.4066C117.154 21.748 116.805 21.9213 116.235 22.0435C115.64 22.171 114.761 22.1081 113.824 21.871ZM119.566 16.9128L119.567 16.9123C120.591 15.1153 121.969 13.7155 123.668 12.7568C124.023 12.5561 124.353 12.4647 124.678 12.4771C124.864 12.4844 125.036 12.6983 125.053 12.8046C125.061 12.863 125.056 12.8867 125.04 12.9586C125.006 13.1169 124.948 13.3826 125.143 13.734C125.233 13.8938 125.33 13.9953 125.426 14.0713C124.939 14.7315 124.528 15.4429 124.129 16.1386C123.635 17.0033 123.122 17.897 122.47 18.6645C122.057 19.1486 121.536 19.534 121.033 19.9068C120.88 20.0201 120.728 20.132 120.58 20.2469C120.108 20.612 119.634 20.8747 119.156 21.1178C118.99 21.0923 118.832 21.0451 118.687 20.9724C118.729 20.7178 118.748 20.4541 118.756 20.1892C118.795 18.8913 118.932 18.0273 119.566 16.9128ZM126.45 15.2057C126.399 15.7679 126.362 16.0601 126.086 16.5551C124.259 19.8204 122.219 21.2837 119.71 21.1564C120.059 20.9617 120.406 20.7428 120.755 20.4722C120.901 20.3591 121.052 20.2485 121.203 20.1366C121.603 19.8401 122.013 19.5366 122.379 19.1783C122.486 19.0737 122.59 18.9646 122.686 18.849C123.357 18.0617 123.875 17.1559 124.377 16.2805C124.776 15.5846 125.188 14.8723 125.674 14.2189L125.75 14.2511C125.822 14.2792 125.884 14.3034 125.973 14.3627C126.193 14.5075 126.481 14.8809 126.45 15.2057ZM134.598 14.0359C132.706 14.7333 131.384 16.0673 130.667 18.0011C130.17 19.3408 129.837 21.2768 130.385 22.7045C128.425 24.0724 126.766 25.4699 125.343 26.9457C125.084 26.9852 124.875 27.1896 124.858 27.4625C123.272 29.199 122.005 31.0599 120.987 33.1238C120.744 31.8001 120.466 30.5375 120.179 29.2605C119.703 27.1423 119.219 24.9284 118.834 22.2038C118.903 22.2185 118.961 22.25 119.035 22.2602C121.199 22.5522 123.094 21.8956 124.763 20.2603C125.59 19.4514 126.361 18.4031 127.082 17.1117C127.46 16.434 127.527 15.9577 127.587 15.3115C127.664 14.5023 127.13 13.7584 126.601 13.4098C126.413 13.2851 126.265 13.2272 126.156 13.2001C126.181 13.0884 126.221 12.9005 126.182 12.6369C126.093 12.034 125.508 11.3652 124.721 11.3363C124.186 11.3159 123.643 11.4594 123.107 11.7623C121.225 12.8245 119.7 14.3673 118.574 16.3486C117.859 17.6055 117.673 18.6496 117.62 19.9872C117.53 19.8723 117.44 19.7533 117.35 19.6337C117.057 19.2476 116.755 18.8491 116.396 18.5253L115.638 17.8353C114.494 16.7884 113.413 15.7994 112.065 14.9111C111.477 14.5237 110.689 14.0669 109.792 13.9727C108.718 13.8589 107.825 14.1731 107.29 14.8698C106.705 15.6202 106.559 16.4114 106.814 17.4314C107.065 18.4339 107.738 19.5426 108.526 20.2566C110.025 21.6125 111.667 22.5028 113.544 22.9785C114.191 23.1417 115.432 23.3824 116.474 23.1605C117.019 23.0432 117.423 22.8547 117.74 22.6229C118.125 25.2697 118.599 27.4363 119.065 29.5107C119.996 33.6515 120.8 37.2278 120.544 43.5927C120.429 46.4959 120.08 50.063 119.453 53.9056C119.099 51.7582 118.394 49.6995 117.377 47.8983C117.362 47.7339 117.274 47.5878 117.138 47.4903C117.041 47.33 116.954 47.1592 116.852 47.0035C115.717 45.2745 114.521 44.0431 113.273 42.9216C113.653 42.8804 113.994 42.6574 114.29 42.3681C114.62 42.0442 114.895 41.643 115.103 41.3358C115.166 41.2445 115.221 41.1634 115.265 41.1044C115.955 40.1867 116.391 39.3308 116.853 38.424L116.958 38.2142C117.18 37.7823 117.591 36.9771 117.244 36.0827C117.155 35.8443 117.012 35.6081 116.577 35.4986C116.073 35.3705 115.558 35.7089 115.246 36.07C113.932 37.5784 113.089 38.8754 112.491 40.3251C112.279 40.8399 112.074 41.4056 112.102 41.902C111.978 41.7962 111.854 41.6905 111.729 41.5847C111.103 41.0544 110.457 40.4956 109.799 39.8943C109.961 39.8265 110.112 39.7338 110.243 39.6048C110.385 39.4659 110.516 39.3028 110.646 39.1383C111.062 38.621 111.348 37.9762 111.473 37.2746C111.652 36.2661 111.571 35.1815 111.223 33.9567C110.813 32.5122 110.138 31.2376 109.036 29.8238C108.623 29.294 107.828 28.9125 107.215 29.1917C106.783 29.3851 106.667 29.6354 106.567 29.913C105.63 32.0249 106.011 34.2031 106.322 35.3137C106.533 36.0674 106.778 36.7085 107.05 37.297C105.289 35.7925 103.486 34.5298 101.671 33.5686C100.6 33 99.6158 32.5281 98.4259 32.504C97.3243 32.481 96.0715 32.6321 95.131 33.9341C94.245 35.1605 94.2582 37.1358 95.163 38.5293C95.9213 39.6968 97.08 40.6153 98.6093 41.26C100.502 42.0587 102.449 42.4272 104.564 42.3872C105.498 42.3705 106.838 42.2033 107.922 41.5081C108.119 41.3823 108.345 41.224 108.544 41.0289C108.672 40.9025 108.787 40.7599 108.88 40.602C109.606 41.2727 110.311 41.8794 110.991 42.4558C112.629 43.8437 114.067 45.0678 115.432 46.9606C112.648 46.333 109.876 46.6779 106.691 47.4188C105.184 46.7375 102.861 48.1352 101.881 48.7283L102.137 49.2398L102.472 49.7053C103.309 49.1992 105.856 47.66 106.553 48.758C106.59 48.8158 106.602 48.8824 106.631 48.9439C106.581 49.5896 106.425 50.1498 106.155 50.6388C105.727 51.4082 105.367 51.8319 104.722 52.4888C104.034 53.183 103.209 53.9552 102.258 54.3621C101.588 54.647 100.902 54.7138 100.251 54.6015C100.117 54.4303 99.9981 54.243 99.9111 54.0281C99.5104 53.0379 99.9821 52.0729 100.301 51.5864C100.495 51.2871 100.694 51.0417 100.923 50.8177C101.307 50.4419 101.772 50.1279 102.432 49.728L102.137 49.2398L101.843 48.7519L101.843 48.7523C100.683 49.4525 99.9796 49.9868 99.344 50.9632C98.5859 52.1251 98.4107 53.3652 98.8527 54.4556C99.5002 56.0593 101.163 56.904 102.896 56.5116C103.846 56.2963 104.619 55.8851 105.314 55.2044C105.702 54.8246 106.066 54.3608 106.421 53.8C107.149 52.6469 108.609 50.3024 107.625 48.3847C108.144 48.2712 108.654 48.1704 109.152 48.085C109.042 48.3235 108.968 48.5695 108.906 48.7791C108.647 49.658 108.54 50.5203 108.556 51.5741C108.571 52.5396 108.79 53.878 109.746 54.7685C110.099 55.0962 110.635 55.2437 111.044 55.1277C111.232 55.0772 111.36 55 111.459 54.9032C111.544 54.8199 111.607 54.7212 111.666 54.6141C112.706 52.9669 112.59 50.8071 112.53 50.1843C112.425 49.0916 112.228 48.3029 111.927 47.7796C113.438 47.7295 114.89 47.9096 116.35 48.4015C118.096 51.4568 118.883 55.3347 118.476 59.0186C117.712 62.514 116.721 66.0867 115.473 69.4961C115.32 69.783 115.193 70.0837 115.095 70.3921C115.078 70.446 115.079 70.4989 115.077 70.5525C114.755 71.3863 114.414 72.2035 114.06 73.0089C113.994 72.7271 113.932 72.4441 113.856 72.1656C113.697 71.5816 113.487 70.9002 113.138 70.278C112.773 69.6273 112.288 69.0879 111.819 68.5658C111.125 67.7941 110.34 66.9201 109.255 66.4573C107.647 65.7722 105.816 66.2009 104.479 66.5135C104.409 66.5296 104.348 66.562 104.291 66.6L104.276 66.5778C103.542 65.5142 102.783 64.4133 101.536 63.8392C100.396 63.3141 98.9546 63.3198 97.3654 63.8547C95.5552 64.4633 93.9824 65.5251 92.4608 66.5519L88.4879 69.2361C88.4282 69.2781 88.3805 69.3297 88.3411 69.3865C87.4811 69.4715 86.6272 69.6122 85.8059 69.8715C84.2386 70.3679 83.1457 71.133 82.5535 72.1424C81.7778 73.4744 81.9372 75.0903 82.1955 76.4965C82.632 78.8761 83.3156 81.2218 84.2234 83.469C84.0527 84.3138 83.8873 85.1775 83.7785 86.0878C83.6322 87.3138 83.4496 88.8395 84.0446 90.1963C84.7449 91.7936 86.3413 92.7377 87.6544 93.382C87.6832 93.3964 87.7147 93.4104 87.7446 93.4246L87.7443 93.4325C88.0821 95.0682 89.1768 96.3557 90.2029 97.3995C91.4834 98.7018 92.8974 99.8836 94.4068 100.913C95.0419 101.346 95.7934 101.815 96.6793 101.896C97.7028 101.991 98.6602 101.541 99.462 101.088C101.15 100.134 102.699 98.9687 104.08 97.6166C104.323 97.379 104.561 97.1351 104.793 96.8861C105.345 96.2939 105.863 95.6717 106.361 95.0411C106.44 95.0486 106.522 95.0434 106.602 95.016C108.441 94.3909 110.524 93.6817 112.068 92.1838L112.085 92.1672C112.879 91.3891 113.469 90.4497 113.895 89.7176C115.534 86.9022 116.36 84.2051 116.349 81.7018C116.347 81.1767 116.31 80.5627 116.048 79.9819C115.824 79.4857 115.468 79.0922 115.155 78.7456C114.94 78.5087 114.713 78.2606 114.478 78.012L114.504 77.9939C114.615 77.8853 114.681 77.7326 114.676 77.5658C114.642 76.6257 114.551 75.6887 114.407 74.7598C114.441 74.7386 114.484 74.7341 114.513 74.7057C114.561 74.6589 114.601 74.6039 114.63 74.5389C115.314 73.0743 115.933 71.5459 116.507 69.9875C116.871 69.3171 117.409 68.7353 118.051 68.3315C118.844 67.836 119.81 67.6216 120.745 67.6967C120.92 69.9071 122.555 71.9248 124.691 72.5255C125.994 72.8923 127.356 72.75 128.56 72.6255L135.554 71.9008C135.708 71.8836 135.964 71.8553 136.187 71.6838C136.211 71.6647 136.24 71.6415 136.27 71.6124C136.463 71.4235 136.716 71.0081 136.429 70.253C136.292 69.8928 136.13 69.5408 135.953 69.1934C136.225 69.1837 136.505 69.1716 136.801 69.1117C137.036 69.0634 137.329 69.003 137.603 68.8409C137.708 68.7788 137.806 68.704 137.894 68.6178C138.281 68.2387 138.492 67.6494 138.447 67.024C138.407 66.4793 138.199 65.9857 138.016 65.5498L137.97 65.4403C137.301 63.838 136.836 62.1527 136.587 60.4313C136.511 59.9062 136.28 58.3086 135.008 58.0938L134.971 58.0923C134.929 58.0467 134.884 58.0027 134.827 57.973C134.136 57.6051 133.302 57.558 132.559 57.7982C132.417 57.3786 132.193 56.9866 131.844 56.6643C131.764 56.5894 131.518 56.3622 131.171 56.3379C130.774 56.3075 130.488 56.5374 130.234 56.7394C129.965 56.9369 129.535 56.9447 129.08 56.9516L128.832 56.9573C126.03 57.0462 123.167 58.7826 121.181 61.6069C120.604 62.4236 119.863 63.6711 120.069 65.0509C120.149 65.5891 120.389 66.1023 120.734 66.557C119.59 66.4871 118.416 66.7579 117.446 67.3632L117.403 67.3957C118.237 64.8257 118.936 62.2022 119.511 59.6151C119.55 59.5506 119.58 59.4796 119.589 59.3998C119.598 59.3261 119.599 59.2514 119.607 59.1776C120.867 53.3869 121.519 47.8303 121.686 43.6388C121.83 40.0388 121.626 37.2737 121.267 34.8275C121.324 34.8008 121.387 34.7855 121.433 34.7404C121.484 34.6911 121.526 34.6319 121.556 34.5638C122.622 32.1537 124.022 30.0429 125.845 28.0801C126.779 28.1197 127.714 28.1398 128.649 28.1479C128.721 28.1489 128.796 28.1508 128.87 28.152C128.683 28.5568 128.772 29.1205 128.865 29.5491C129.181 31.0264 129.613 32.7232 130.717 34.1762C130.898 34.5261 131.245 34.5908 131.444 34.5146C131.631 34.5004 131.784 34.4353 131.903 34.319C132.025 34.2 132.109 34.0279 132.159 33.8032C132.234 33.4568 132.345 32.7795 132.249 32.143C132.227 31.9947 132.217 31.8402 132.208 31.682C132.179 31.2544 132.147 30.7703 131.926 30.2335L131.862 30.0774C131.621 29.4838 131.288 28.7219 130.683 28.1811C131.337 28.1992 131.992 28.2276 132.638 28.2786L132.74 28.2642C132.785 28.4843 132.907 28.7362 133.164 29.0111C133.994 29.8965 135.538 29.9259 136.779 29.9495C137.003 29.9541 137.214 29.9581 137.405 29.9675C137.712 29.9826 138.12 29.9797 138.549 29.813C138.695 29.7558 138.822 29.6712 138.926 29.569C139.248 29.254 139.365 28.7722 139.254 28.4129C139.147 28.0696 138.943 27.9185 138.797 27.8106C138.466 27.5194 137.605 26.8256 136.753 26.6475C136.258 26.5442 136.063 26.5597 135.735 26.5984C135.641 26.6091 135.531 26.6228 135.382 26.6335L135.382 26.634C134.211 26.7258 133.47 26.9375 133.071 27.3019C132.98 27.215 132.865 27.1517 132.728 27.1411C131.367 27.0325 129.991 27.0196 128.66 27.0075C128.087 27.0019 127.513 26.9777 126.94 26.9652C128.142 25.816 129.502 24.7092 131.066 23.6219C131.599 23.9987 132.445 24.1276 133.8 23.6094C134.434 23.3658 134.999 23.0031 135.488 22.5243C135.747 22.271 135.984 21.9858 136.199 21.6683C137.57 19.6537 137.839 17.5354 137.019 15.1924C136.827 14.6424 136.486 14.2444 136.034 14.0408C135.595 13.8437 135.124 13.8406 134.598 14.0359Z" fill="white"/>
<path fill-rule="evenodd" clip-rule="evenodd" d="M92.6347 103.595C92.7626 104.302 92.4871 105.039 92.1971 105.821C92.1216 106.023 92.0474 106.23 91.9766 106.439C91.0485 105.312 89.991 104.303 88.8139 103.433C88.6231 102.195 87.7816 101.118 86.6791 100.635C86.5266 100.221 86.3453 99.8189 86.1333 99.4305L87.9135 100.113C89.083 100.562 90.2918 101.025 91.2913 101.762C91.8241 102.155 92.4885 102.791 92.6347 103.595ZM94.2793 109.246C94.4081 109.862 94.2434 110.572 94.0981 111.2C93.9912 111.659 93.8908 112.093 93.7069 112.476C93.5291 112.843 93.2598 113.188 93.0199 113.476C92.3995 114.221 91.6931 114.89 90.9479 115.512C90.9957 114.789 90.9398 114.037 90.6533 113.33L90.6482 113.322C90.8947 113.121 91.1418 112.904 91.3918 112.659C91.7197 112.338 92.0528 111.976 92.3982 111.569C92.9455 110.926 93.5 110.142 93.4672 109.209C93.4434 108.589 93.1665 108.057 92.8393 107.572L92.8448 107.562C92.8623 107.473 92.8936 107.384 92.9167 107.295C93.584 107.916 94.126 108.519 94.2793 109.246ZM89.4797 117.359C89.4183 117.628 89.3546 117.906 89.2326 118.111C89.0937 118.346 88.8467 118.54 88.6222 118.698C87.2989 119.632 85.534 120.198 83.3768 120.379C82.7935 120.428 82.1064 120.461 81.4379 120.332C80.6443 120.181 79.9019 119.791 79.2016 119.343C79.5593 119.346 79.9341 119.332 80.3153 119.204C80.6124 119.102 80.8716 118.943 81.0752 118.744C81.2484 118.574 81.363 118.369 81.446 118.153C82.0858 118.123 82.7389 118.063 83.4181 117.936C83.9098 117.844 84.4274 117.717 84.8778 117.417C85.0185 117.323 85.1455 117.217 85.2602 117.105C85.5178 116.852 85.7169 116.566 85.8839 116.305C86.1706 115.859 86.4223 115.393 86.6541 114.921C87.6543 114.906 88.6809 114.601 89.6587 114.013C89.9547 114.991 89.7666 116.109 89.4797 117.359ZM71.243 116.659C70.7599 116.428 70.2812 116.159 70.0503 115.754C69.8492 115.401 69.8269 114.914 69.8224 114.485C69.8059 113.238 69.9142 111.984 70.1423 110.754C70.2593 110.122 70.429 109.437 70.7451 108.845C70.9311 109.209 71.1913 109.536 71.578 109.759L71.6474 109.772C71.7434 110.309 72.0189 110.76 72.2762 111.129C73.128 112.351 74.2668 113.344 75.5561 114.069C75.1973 115.075 75.4776 116.266 76.2907 116.981C76.7515 117.387 77.3125 117.596 77.7504 117.733C78.4355 117.946 79.167 118.064 79.9234 118.126C79.615 118.223 79.2413 118.214 78.8788 118.202C77.8058 118.167 76.6962 118.13 75.6268 117.981C74.1039 117.767 72.6299 117.322 71.243 116.659ZM71.4614 107.269C71.3254 106.395 71.2316 105.29 71.7181 104.493C72.1291 103.814 72.9381 103.38 73.652 102.998C74.3353 102.632 75.0027 102.343 75.7091 102.037C75.7494 102.02 75.792 102.001 75.8324 101.983C75.229 103.038 74.7948 104.189 74.5792 105.388C74.5608 105.49 74.5793 105.587 74.6127 105.678C74.2947 105.877 73.9776 106.077 73.671 106.293C72.7094 106.969 72.116 107.694 71.8284 108.433C71.6249 108.11 71.5228 107.664 71.4614 107.269ZM78.8806 97.9397C79.5014 97.3029 80.192 96.7111 80.9744 96.6457C81.561 96.5971 82.2334 96.8597 82.9724 97.4257C83.9774 98.1954 84.7854 99.2223 85.3318 100.368C85.1231 100.373 84.9206 100.404 84.7218 100.444C83.4244 99.6615 81.6502 99.1064 80.203 99.0593C79.656 99.0417 79.0748 99.041 78.5141 99.2361C78.0094 99.411 77.6018 99.7262 77.2656 100.053C77.1467 100.116 77.0279 100.169 76.909 100.228C77.5245 99.4306 78.1726 98.6575 78.8806 97.9397ZM78.0252 105.212C77.9419 105.479 77.8912 105.751 77.8686 106.028C77.5615 106.343 77.3177 106.734 77.1832 107.191C77.0071 107.788 76.9991 108.464 77.1608 109.201C77.3542 110.079 77.7307 110.737 78.2808 111.158C78.8867 111.621 79.6282 111.731 80.1328 111.774C80.7477 111.827 81.2574 111.752 81.6813 111.581L81.6899 112.557C81.6959 113.158 81.6494 113.801 81.3005 114.057C81.0932 114.206 80.7555 114.227 80.4537 114.229C77.6122 114.245 74.8367 112.807 73.2127 110.476C73.0252 110.206 72.826 109.888 72.769 109.565C72.607 108.65 73.5257 107.787 74.327 107.226C75.4803 106.416 76.7218 105.744 78.0252 105.212ZM80.5241 104.275L80.6065 104.291C81.2708 104.407 81.8864 104.803 82.2603 105.366C82.6427 105.943 82.7702 106.689 82.5993 107.36C82.5151 107.691 82.3611 108.016 82.1982 108.36C82.1084 108.55 82.0176 108.741 81.9375 108.934C81.8251 109.207 81.7546 109.464 81.7031 109.715C81.4911 109.43 81.3198 109.081 81.1712 108.718C81.0588 108.443 80.9872 108.144 80.9149 107.848C80.7516 107.184 80.5672 106.432 79.9765 105.888C79.7072 105.639 79.4167 105.501 79.1365 105.456C79.2458 105.149 79.4095 104.86 79.6244 104.616C79.7688 104.452 79.8998 104.348 80.0235 104.301C80.1458 104.253 80.3164 104.246 80.5241 104.275ZM78.6162 106.89C78.7594 106.835 78.8741 106.725 78.935 106.585L78.9559 106.569C78.9847 106.574 79.0861 106.619 79.2028 106.727C79.5399 107.038 79.6637 107.54 79.8066 108.121C79.8894 108.459 79.9755 108.81 80.1148 109.15C80.3305 109.677 80.5822 110.201 80.9529 110.62C80.712 110.659 80.4529 110.655 80.23 110.637C79.6539 110.588 79.2547 110.465 78.9749 110.251C78.564 109.937 78.367 109.372 78.2763 108.956C78.1557 108.409 78.1565 107.925 78.2777 107.514C78.3505 107.269 78.477 107.061 78.6162 106.89ZM84.4595 110.624C84.3184 110.811 84.1917 110.974 84.0536 111.049C83.767 111.208 83.3046 111.068 82.8403 110.884C82.8394 110.823 82.8519 110.764 82.8305 110.704C82.7104 110.368 82.7649 109.921 82.9922 109.372C83.0658 109.196 83.148 109.022 83.2297 108.849C83.4091 108.471 83.5941 108.079 83.7052 107.64C83.9542 106.662 83.7696 105.575 83.2109 104.734C82.8507 104.191 82.3283 103.769 81.7409 103.485C82.2295 103.068 82.7356 102.671 83.2726 102.322C83.8521 101.945 84.6184 101.512 85.3899 101.503C86.5696 101.492 87.7055 102.659 87.7267 103.905C87.7394 104.624 87.4557 105.358 87.1476 106.047C86.4236 107.666 85.5191 109.206 84.4595 110.624ZM78.8887 100.314C79.2659 100.183 79.7083 100.186 80.1666 100.2C81.1273 100.232 82.2954 100.534 83.2986 100.98C83.0666 101.106 82.8474 101.236 82.6504 101.365C81.8542 101.882 81.1082 102.481 80.4145 103.134C80.1227 103.122 79.8523 103.144 79.6149 103.234C79.3702 103.328 79.1427 103.498 78.9207 103.717C78.8414 103.709 78.7594 103.714 78.6786 103.742C77.7044 104.075 76.7626 104.488 75.8547 104.966C76.18 103.672 76.761 102.445 77.5881 101.394C78.0548 100.795 78.4574 100.464 78.8887 100.314ZM78.0908 116.643C77.7611 116.54 77.3445 116.388 77.0446 116.124C76.6275 115.756 76.4733 115.125 76.6098 114.583C77.8248 115.092 79.1335 115.379 80.461 115.371C80.9419 115.368 81.4964 115.32 81.9626 114.987C82.0392 114.933 82.1089 114.875 82.1726 114.812C82.8469 114.152 82.837 113.083 82.8314 112.547L82.8278 112.096C83.3368 112.262 84.0035 112.383 84.6074 112.048C84.7591 111.964 84.889 111.858 85.0012 111.748C85.1581 111.595 85.2794 111.433 85.3738 111.307C86.1435 110.277 86.8292 109.182 87.4335 108.045C87.6443 108.143 87.8077 108.417 87.8384 108.677C87.8884 109.104 87.7242 109.572 87.5372 110.053C87.1415 111.07 86.6991 112.063 86.2676 113.031C85.867 113.933 85.4523 114.864 84.9228 115.689C84.7438 115.969 84.5208 116.278 84.2435 116.468C83.9509 116.663 83.5555 116.749 83.2082 116.814C81.313 117.168 79.591 117.11 78.0908 116.643ZM91.7442 107.99C92.0368 108.395 92.3103 108.828 92.3256 109.249C92.3448 109.791 91.9535 110.328 91.5273 110.83C90.6962 111.813 89.9528 112.494 89.1894 112.973C88.7008 113.279 88.002 113.614 87.1976 113.741C87.2348 113.657 87.2768 113.572 87.314 113.488C87.7272 112.561 88.1959 111.51 88.6009 110.467C88.8338 109.871 89.0525 109.231 88.9727 108.545C88.9031 107.953 88.532 107.31 87.9458 107.018C88.0257 106.85 88.1124 106.683 88.1892 106.513C88.4249 105.987 88.6381 105.429 88.7611 104.845C89.8855 105.762 90.8909 106.811 91.7442 107.99ZM22.3072 131.319C22.0022 132.07 21.4938 132.669 20.7521 133.15C19.1347 134.202 17.4516 134.419 15.6233 133.83C16.5943 133.608 17.6158 133.316 18.6806 132.856C20.1143 132.237 21.2483 131.511 22.1575 130.621C22.3118 130.47 22.4553 130.31 22.5973 130.15C22.5946 130.425 22.5214 130.792 22.3072 131.319ZM14.8037 133.336C14.7551 133.222 14.7208 133.064 14.8395 132.762C15.1383 132.003 15.5486 131.367 16.078 130.849C16.6452 130.293 17.3495 129.872 18.1985 129.578C19.3887 129.165 21.0599 128.942 22.1099 129.375C22.24 129.429 22.4325 129.516 22.535 129.754C21.5671 130.924 20.302 131.845 18.5673 132.595C17.4126 133.093 16.328 133.39 15.1375 133.643C14.9795 133.559 14.8567 133.46 14.8037 133.336ZM32.5604 129.286C32.4141 129.286 32.2652 129.277 32.1232 129.253C31.9452 129.222 31.7602 129.206 31.5683 129.189C31.1964 129.156 30.8449 129.126 30.4842 128.967L30.3247 128.899C29.8157 128.68 29.1983 128.414 28.842 127.989C28.9255 128.002 29.0252 128.021 29.1436 128.05C30.243 128.31 31.4696 128.639 32.5604 129.286ZM28.5004 134.859C28.4997 135.094 28.4996 135.318 28.5049 135.518C28.5137 135.816 28.4867 136.011 28.4195 136.211L28.3343 136.099C27.8794 135.557 27.5379 134.952 27.4633 134.555C27.4002 134.218 27.4095 134.151 27.4437 133.903C27.4587 133.798 27.4757 133.672 27.4923 133.504C27.6109 132.301 27.8248 131.97 27.8146 131.911C27.8427 131.926 27.898 131.962 27.9811 132.043C28.5044 132.554 28.5018 133.886 28.5004 134.859ZM16.4748 123.888C15.9742 124.154 15.681 124.185 15.1161 124.225C14.7927 124.248 14.4254 123.952 14.2848 123.73C14.2278 123.639 14.2045 123.577 14.1783 123.504L14.1477 123.428C14.8108 122.956 15.5316 122.558 16.2361 122.174C17.1219 121.691 18.0383 121.191 18.8395 120.538C18.9569 120.444 19.068 120.342 19.1747 120.238C19.5411 119.879 19.8532 119.475 20.158 119.082C20.2731 118.933 20.3866 118.784 20.5028 118.641C20.7808 118.298 21.0065 117.955 21.2085 117.611C21.2826 120.122 19.7777 122.131 16.4748 123.888ZM12.4272 122.395C12.4217 122.07 12.52 121.742 12.7283 121.391C13.1946 120.604 13.7558 119.889 14.4081 119.25C15.1465 118.527 16.003 117.901 16.9688 117.378C18.0969 116.767 18.9631 116.649 20.262 116.636C20.5265 116.634 20.7908 116.621 21.0463 116.584C21.1161 116.731 21.16 116.889 21.182 117.056C20.9287 117.528 20.6563 117.997 20.2809 118.462C20.163 118.607 20.0483 118.756 19.9319 118.907C19.5484 119.402 19.1519 119.915 18.6596 120.317C17.8782 120.953 16.9743 121.447 16.099 121.924C15.3958 122.307 14.6752 122.704 14.0054 123.177C13.9315 123.079 13.832 122.98 13.6741 122.887C13.3264 122.685 13.06 122.736 12.901 122.767C12.8289 122.782 12.805 122.787 12.7452 122.776C12.6409 122.758 12.4307 122.582 12.4272 122.395ZM18.8323 112.717C17.8408 111.586 16.9031 110.517 16.0911 109.228C15.7855 108.742 15.4274 108.101 15.3725 107.447C15.3319 106.974 15.3804 106.33 15.8657 105.976C16.3514 105.615 16.7676 105.554 17.4558 105.741C18.2362 105.954 19.1316 106.524 19.6818 107.158C20.8799 108.541 21.6546 110.041 22.0469 111.741C22.2639 112.683 22.3087 113.563 22.1688 114.154C22.0347 114.722 21.8536 115.068 21.508 115.263C21.1826 114.907 20.8029 114.607 20.4444 114.323C20.0913 114.045 19.7575 113.78 19.5121 113.496L18.8323 112.717ZM39.0832 107.693C39.0222 107.775 38.8719 107.875 38.771 107.951L38.6803 108.022C38.3062 108.311 37.835 108.505 37.3196 108.585C36.4831 108.716 35.567 108.624 34.5185 108.303C33.2311 107.908 32.0908 107.27 30.82 106.236C30.6182 106.072 30.5354 105.821 30.5351 105.761L30.6808 105.708C31.9963 105.156 33.6845 105.122 35.3125 105.615C37.005 106.128 38.109 106.725 39.0017 107.609C39.0406 107.647 39.0665 107.678 39.0832 107.693ZM39.2365 105.466C37.4765 103.456 36.0558 101.388 35.0158 99.3223C34.5199 98.3379 34.1413 97.5109 34.142 96.5687C34.1424 95.7437 34.2645 95.1001 34.7692 94.5747L34.7714 94.5797C35.3386 95.0963 35.8785 95.8564 36.2517 96.6638C37.9145 100.262 39.1471 103.31 40.1169 106.214C39.9247 106.162 39.6333 105.919 39.2365 105.466ZM38.4509 94.3776C39.4106 95.0294 40.1632 96.0324 40.6894 97.3584C41.3881 99.115 41.6902 100.917 41.6134 102.869C41.5684 103.978 41.2996 104.955 40.8565 105.616C40.789 105.716 40.7326 105.784 40.6756 105.855C40.8971 104.014 40.5585 102.386 40.1554 100.751C39.654 98.716 39.0181 96.6004 37.2617 95.0571C36.6483 94.5182 35.8512 94.267 35.0494 94.3266C35.0844 94.2998 35.1114 94.2707 35.1498 94.2446C36.0126 93.6476 37.4623 93.7059 38.4509 94.3776ZM35.1906 94.5897C35.8754 94.5688 36.5485 94.8099 37.0741 95.2718C38.7674 96.7598 39.3878 98.8283 39.8787 100.819C40.2902 102.491 40.634 104.154 40.3635 106.042C39.3945 103.154 38.162 100.117 36.5108 96.5442C36.1716 95.8105 35.7003 95.1152 35.1906 94.5897ZM40.8581 112.471C40.7476 112.544 40.6509 112.607 40.5793 112.658C39.7278 113.271 38.9441 113.65 38.0366 114.088L37.8235 114.191C37.4207 114.386 37.1245 114.495 36.8258 114.455C36.8574 114.416 36.8989 114.377 36.9435 114.336C38.3805 113.138 39.5967 112.38 40.9365 111.861C41.5054 111.64 41.7969 111.578 41.9475 111.571C41.8715 111.709 41.6177 111.977 40.8581 112.471ZM50.1135 100.975L50.1372 100.936C50.7966 99.8976 51.2264 99.3475 52.0399 98.844C52.5327 98.5359 53.5075 98.0846 54.489 98.506C54.7021 98.5975 54.8868 98.72 55.0552 98.8579C55.1538 99.5115 55.0726 100.196 54.7737 100.859C54.3478 101.802 53.5622 102.615 52.8489 103.284C52.1788 103.915 51.7476 104.265 50.9697 104.677C50.4744 104.937 49.9111 105.082 49.2638 105.118C49.2035 105.088 49.1379 105.075 49.0811 105.037C47.9975 104.316 49.5898 101.802 50.1135 100.975ZM55.8009 101.267C55.5117 102.435 54.8558 103.237 53.5343 104.033C52.7273 104.518 51.233 105.406 49.9853 105.314C50.3889 105.235 50.7612 105.11 51.103 104.929C51.9103 104.502 52.3545 104.141 53.0444 103.492C53.1441 103.397 53.2463 103.301 53.3479 103.201C53.9915 102.571 54.6477 101.83 55.0339 100.976C55.3012 100.384 55.4055 99.7744 55.3774 99.1792C55.8255 99.7317 55.9972 100.48 55.8009 101.267ZM51.8112 108.238C52.5558 108.266 53.5686 108.44 54.1705 109.115C54.2142 109.164 54.2411 109.234 54.252 109.286L54.2393 109.293C53.1602 109.943 51.6074 110.037 50.5151 109.909C48.5852 109.681 48.3788 109.245 48.3714 109.227C48.3493 109.174 48.3923 109.033 48.5413 108.839L48.5415 108.839L48.5685 108.808C48.7177 108.662 49.0957 108.56 49.3511 108.491C50.1202 108.282 50.8786 108.204 51.8112 108.238ZM88.3229 99.0481L85.1062 97.8143C85.0669 97.8 85.0267 97.8002 84.987 97.7947C84.5838 97.3302 84.1522 96.8913 83.666 96.5191C82.6951 95.7752 81.7567 95.4346 80.88 95.508C79.7239 95.6045 78.8088 96.3838 78.0669 97.1377C76.8481 98.3765 75.7518 99.7396 74.8052 101.189C74.2485 101.432 73.6831 101.685 73.1119 101.992C72.3127 102.422 71.3164 102.957 70.7434 103.899C70.065 105.012 70.1678 106.379 70.3328 107.444L70.3338 107.448C69.5172 108.353 69.1988 109.574 69.019 110.546C68.7782 111.848 68.664 113.179 68.6802 114.499C68.6809 114.564 68.6851 114.633 68.6868 114.701C65.5136 115.733 62.2376 116.547 59.0494 117.173C55.3694 117.494 51.5254 116.626 48.5182 114.824C48.0575 113.354 47.9078 111.897 47.9896 110.388C48.5065 110.7 49.2909 110.913 50.3812 111.042C51.0021 111.115 53.1594 111.276 54.8706 110.249C54.9568 110.203 55.0428 110.15 55.1203 110.074C55.2155 109.981 55.2981 109.853 55.3533 109.665C55.4792 109.253 55.3431 108.714 55.0228 108.355C54.1526 107.38 52.8192 107.133 51.8541 107.098C50.8004 107.059 49.936 107.149 49.0524 107.389C48.8415 107.446 48.5942 107.515 48.3535 107.619C48.4496 107.124 48.5606 106.617 48.6849 106.1C50.5807 107.124 52.9557 105.714 54.1243 105.009C54.6924 104.666 55.1638 104.313 55.5517 103.933C56.2463 103.253 56.6741 102.487 56.9091 101.543C57.3378 99.818 56.5279 98.1383 54.9384 97.457C53.8577 96.992 52.6143 97.1412 51.4366 97.8746C50.4472 98.4896 49.8989 99.1832 49.1738 100.326L49.149 100.364C48.5353 101.332 47.0898 103.624 47.7391 105.146L47.7386 105.146C46.931 108.315 46.5277 111.079 47.0968 113.876C45.2335 112.471 44.0399 111.008 42.6864 109.341C42.1247 108.649 41.5325 107.931 40.8776 107.192C41.037 107.102 41.182 106.989 41.3105 106.863C41.5098 106.668 41.6737 106.447 41.8041 106.252C42.5214 105.183 42.7168 103.846 42.7535 102.913C42.8374 100.8 42.5099 98.8451 41.7506 96.9369C41.1381 95.3944 40.2449 94.216 39.0931 93.4338C37.7187 92.5001 35.7445 92.4451 34.4998 93.3051C33.1792 94.219 33.0014 95.4678 33.0001 96.5682C32.9991 97.7585 33.4511 98.753 33.9969 99.8364C34.92 101.671 36.1441 103.5 37.6115 105.292C37.0287 105.009 36.3928 104.75 35.644 104.523C34.5402 104.189 32.3706 103.762 30.1799 104.675C29.9599 104.748 29.7054 104.858 29.5057 105.286C29.2126 105.894 29.5773 106.697 30.0994 107.121C31.4888 108.253 32.749 108.954 34.1842 109.394C35.4018 109.767 36.4844 109.872 37.496 109.714C38.2006 109.604 38.8512 109.331 39.4627 108.86C39.5902 108.763 39.7298 108.658 39.8556 108.535C39.9819 108.411 40.0779 108.261 40.1504 108.095C40.7377 108.766 41.283 109.424 41.7998 110.061C41.9037 110.188 42.0065 110.313 42.1097 110.441C41.6113 110.402 41.0317 110.6 40.4757 110.814C39.063 111.363 37.7486 112.178 36.213 113.46C35.8462 113.766 35.4961 114.273 35.6135 114.778C35.7141 115.216 35.9468 115.364 36.2118 115.47C37.0706 115.824 37.8839 115.43 38.3203 115.218L38.5332 115.116C39.449 114.673 40.3139 114.256 41.2453 113.586C41.3057 113.542 41.3879 113.49 41.4806 113.428C41.7921 113.226 42.199 112.96 42.5296 112.637C42.8252 112.347 43.0553 112.011 43.1044 111.632C44.1991 112.903 45.4053 114.125 47.1102 115.296C47.2639 115.401 47.4323 115.492 47.591 115.592C47.6854 115.73 47.8298 115.822 47.9939 115.84C49.7678 116.892 51.8038 117.637 53.9357 118.037C50.0381 118.59 46.462 118.863 43.6223 118.916C37.2539 119.037 33.6955 118.159 29.5749 117.141C27.5112 116.632 25.3548 116.113 22.718 115.672C22.9558 115.359 23.1518 114.959 23.2805 114.417C23.5243 113.38 23.3096 112.135 23.1598 111.485C22.7239 109.597 21.8683 107.937 20.5441 106.41C19.8469 105.607 18.7525 104.911 17.7553 104.639C16.7408 104.363 15.947 104.493 15.1844 105.062C14.4775 105.582 14.1438 106.467 14.235 107.544C14.3104 108.442 14.7501 109.241 15.1255 109.836C15.9854 111.202 16.9516 112.303 17.974 113.47L18.648 114.242C18.9639 114.608 19.3562 114.918 19.7361 115.219C19.8538 115.312 19.9706 115.404 20.0834 115.497C18.7454 115.521 17.6977 115.685 16.4258 116.374C14.4208 117.458 12.8484 118.952 11.7461 120.809C11.4315 121.339 11.2767 121.879 11.2863 122.414C11.2982 123.202 11.9545 123.801 12.5541 123.901C12.8182 123.947 13.0068 123.911 13.1075 123.899C13.1435 123.998 13.1987 124.147 13.3189 124.338C13.6568 124.874 14.3893 125.423 15.1979 125.363C15.8471 125.317 16.3247 125.26 17.0106 124.896C18.3166 124.202 19.3808 123.453 20.207 122.644C21.8765 121.009 22.5732 119.129 22.3262 116.96C22.3176 116.885 22.2875 116.827 22.2743 116.756C24.9904 117.199 27.1937 117.729 29.3014 118.25C30.5721 118.563 31.8277 118.867 33.1462 119.138C31.0612 120.113 29.1731 121.341 27.4042 122.891C27.1311 122.901 26.9232 123.105 26.8787 123.363C25.3729 124.755 23.9406 126.385 22.5326 128.316C21.1168 127.738 19.1737 128.031 17.8241 128.5C15.8759 129.176 14.5145 130.469 13.777 132.346C13.5711 132.868 13.5642 133.339 13.7523 133.782C13.9463 134.238 14.3371 134.587 14.8826 134.791C17.2082 135.659 19.3314 135.436 21.3741 134.107C21.6961 133.899 21.9864 133.668 22.2453 133.414C22.7343 132.935 23.1088 132.378 23.3656 131.749C23.9117 130.406 23.801 129.556 23.4355 129.016C24.5557 127.475 25.6905 126.138 26.8642 124.961C26.8651 125.534 26.8773 126.108 26.8708 126.681C26.8551 128.012 26.839 129.388 26.9187 130.752C26.9272 130.888 26.9877 131.004 27.0722 131.097C26.6985 131.488 26.4714 132.225 26.3563 133.394L26.3559 133.394C26.342 133.542 26.3256 133.653 26.3133 133.747C26.2677 134.074 26.2482 134.267 26.341 134.764C26.5012 135.621 27.1768 136.496 27.4873 136.87C27.5658 136.981 27.7123 137.189 28.0536 137.302C28.4091 137.421 28.8942 137.314 29.2163 136.999C29.3211 136.896 29.4088 136.771 29.4684 136.625C29.643 136.2 29.6551 135.794 29.6466 135.486C29.641 135.296 29.6416 135.084 29.642 134.86C29.6442 133.619 29.6472 132.075 28.779 131.227C28.5101 130.963 28.2608 130.836 28.0416 130.787L28.0582 130.685C28.0208 130.038 28.0061 129.383 28.0015 128.729C28.5297 129.344 29.2845 129.694 29.8728 129.947L30.0272 130.014C30.5594 130.247 31.0425 130.289 31.4694 130.327C31.6279 130.339 31.7821 130.353 31.9297 130.378C32.5642 130.487 33.2433 130.39 33.5934 130.322C33.8279 130.276 34.0067 130.189 34.1255 130.073C34.2321 129.968 34.29 129.84 34.298 129.697C34.3966 129.428 34.3406 129.08 33.9957 128.889C32.566 127.755 30.8788 127.288 29.4076 126.939C28.9797 126.837 28.4209 126.743 28.0102 126.922C28.0116 126.846 28.0106 126.769 28.0112 126.694C28.0224 125.759 28.0228 124.825 28.0023 123.889C30.0025 122.108 32.1422 120.753 34.5746 119.738C34.6429 119.709 34.7035 119.668 34.7536 119.619C34.7994 119.574 34.816 119.511 34.8444 119.454C37.2824 119.864 40.0427 120.126 43.6449 120.058C47.7267 119.981 53.3094 119.459 59.1984 118.308C59.2806 118.3 59.3638 118.302 59.446 118.293C59.5311 118.284 59.6066 118.252 59.6755 118.211C62.7171 117.6 65.8282 116.82 68.8539 115.846C68.9049 116.006 68.9705 116.166 69.0585 116.319C69.4458 116.999 70.1314 117.393 70.7509 117.689C72.243 118.403 73.8295 118.881 75.467 119.111C76.0263 119.19 76.5876 119.238 77.1457 119.272C77.1754 119.307 77.2013 119.346 77.24 119.375C78.3794 120.21 79.6693 121.156 81.2233 121.454C82.0319 121.61 82.8507 121.57 83.4723 121.516C85.8344 121.318 87.7887 120.683 89.2802 119.629C89.4551 119.507 89.6411 119.365 89.8147 119.195C89.9616 119.051 90.1005 118.886 90.2149 118.694C90.4271 118.335 90.5155 117.953 90.5929 117.614C90.634 117.434 90.6769 117.24 90.7191 117.041C90.828 117.035 90.9358 117.008 91.0299 116.938C91.6209 116.492 92.1835 116.008 92.7124 115.49C93.1291 115.082 93.5254 114.654 93.8969 114.206C94.1812 113.865 94.5028 113.451 94.734 112.972C94.9753 112.474 95.0938 111.956 95.2099 111.458C95.373 110.752 95.5781 109.874 95.3963 109.01C95.1259 107.73 94.0967 106.807 93.3447 106.135L93.305 106.111C93.6236 105.253 93.9343 104.366 93.7574 103.391C93.5899 102.463 92.9711 101.582 91.9678 100.843C90.8447 100.015 89.5633 99.5233 88.3229 99.0481Z" fill="white"/>
<path fill-rule="evenodd" clip-rule="evenodd" d="M128.437 44.9879L128.486 44.0593C128.497 43.8649 128.408 43.6791 128.251 43.5657C128.093 43.4523 127.888 43.4263 127.707 43.4976C124.416 44.7898 122.212 48.2921 122.46 51.8188C122.526 52.7468 123.4 54.42 124.428 54.7398C125.289 55.0077 126.179 54.9895 126.946 54.9513C128.87 54.8562 130.791 54.5828 132.658 54.1393C133.273 53.9923 133.962 53.7945 134.47 53.2963C134.52 53.2479 134.568 53.1979 134.614 53.1432C134.913 52.7869 135.016 52.3733 134.898 52.0084C134.803 51.7146 134.589 51.5281 134.46 51.417L133.695 50.752C135.265 49.2113 136.2 47.0498 136.226 44.8453C136.228 44.6733 136.233 44.3165 135.985 44.022C135.711 43.6951 135.299 43.6578 135.124 43.6419C132.898 43.4345 130.428 43.9426 128.437 44.9879Z" fill="white"/>
<path fill-rule="evenodd" clip-rule="evenodd" d="M74.4416 84.0599C73.4873 83.9388 73.1146 84.3637 72.9748 84.6272C72.8021 84.9592 72.8562 85.302 72.887 85.504L73.1318 87.0891L73.1092 87.0837C71.8738 86.76 70.4484 87.1583 69.2943 88.1476C68.3426 88.9703 67.6915 90.0373 67.0565 91.1535C66.4294 92.2614 66.7809 92.8639 67.0461 93.1239C67.3579 93.43 67.7741 93.48 68.0235 93.5106C70.9757 93.8679 74.029 94.2376 77.085 94.0464C77.8686 93.9963 78.7013 93.9052 79.478 93.5741C80.4353 93.1652 81.1084 92.7166 81.5731 92.2615C82.4476 91.4052 82.5856 90.5244 82.4892 89.8355C82.1013 87.0684 77.3393 84.4239 74.4416 84.0599Z" fill="white"/>
<path fill-rule="evenodd" clip-rule="evenodd" d="M92.0218 59.3774C91.958 58.9594 91.8858 58.4866 92.0057 58.1142L92.015 58.0816C92.0449 57.9679 92.0932 57.8775 92.1639 57.8083C92.3938 57.5832 92.862 57.5679 93.6977 57.6263C93.9199 57.6414 94.1495 57.6568 94.3078 57.7305C94.6731 57.9021 94.8521 58.4587 94.9915 58.9666C95.0475 59.1698 95.1043 59.3784 95.0896 59.5402C95.0608 59.8678 94.714 60.1336 94.3888 60.2291C93.9389 60.3592 93.4019 60.2847 92.9342 60.204C92.6247 60.1518 92.2914 60.0741 92.1673 59.9029C92.0841 59.7885 92.0514 59.5705 92.0218 59.3774ZM94.7069 61.3254C95.0828 61.2167 95.4122 61.0216 95.6677 60.7714C95.9849 60.4608 96.1885 60.0647 96.2273 59.643C96.2601 59.2756 96.1671 58.9372 96.093 58.6651C95.9435 58.1206 95.6647 57.1061 94.7925 56.6976C94.4391 56.5317 94.0704 56.5076 93.6716 56.4803C92.8431 56.4225 91.3028 56.3121 90.9142 57.7801C90.7183 58.4032 90.8148 59.0383 90.8938 59.5498C90.937 59.8379 90.9968 60.2337 91.243 60.5731C91.606 61.0739 92.1771 61.2327 92.7409 61.3295C93.3344 61.4317 94.0248 61.5231 94.7069 61.3254Z" fill="white"/>
<path fill-rule="evenodd" clip-rule="evenodd" d="M62.9717 110.074C63.0277 110.275 63.0856 110.484 63.0696 110.646C63.0417 110.974 62.6944 111.24 62.369 111.336C61.9191 111.465 61.3816 111.391 60.9139 111.31C60.6044 111.257 60.2709 111.18 60.1477 111.009C60.0643 110.894 60.0314 110.676 60.0018 110.484C59.9357 110.045 59.8662 109.59 59.9859 109.22L59.9952 109.188C60.0253 109.074 60.0727 108.983 60.1437 108.914C60.3736 108.689 60.8416 108.674 61.6774 108.732C61.8996 108.747 62.1292 108.762 62.288 108.837C62.6533 109.008 62.8321 109.565 62.9717 110.074ZM58.8944 108.887C58.6992 109.506 58.7962 110.143 58.8736 110.655C58.9172 110.944 58.9768 111.34 59.2227 111.679C59.5861 112.18 60.1571 112.338 60.7211 112.436C61.3144 112.538 62.0049 112.63 62.6869 112.431C63.0627 112.323 63.3928 112.128 63.6486 111.877C63.9655 111.567 64.1684 111.171 64.207 110.751C64.2414 110.381 64.148 110.043 64.0727 109.771C63.923 109.226 63.6446 108.212 62.7727 107.804C62.4193 107.638 62.0504 107.613 61.6513 107.586C60.8228 107.528 59.2836 107.419 58.8944 108.887Z" fill="white"/>
<path fill-rule="evenodd" clip-rule="evenodd" d="M106.882 61.4296C106.726 61.1857 106.603 60.7949 106.898 60.3209C107.065 60.0521 107.465 59.8696 107.941 59.8423C108.483 59.8116 109.002 59.9865 109.234 60.2777C109.459 60.5616 109.477 61.0216 109.275 61.3715C109.07 61.7241 108.658 61.9807 108.199 62.0374C107.682 62.0997 107.154 61.8559 106.882 61.4296ZM108.336 63.1702C108.931 63.0979 109.472 62.8372 109.872 62.4454C110.026 62.2951 110.158 62.1262 110.265 61.9408C110.697 61.1899 110.641 60.2141 110.128 59.5679C109.663 58.9824 108.8 58.6511 107.876 58.7024C107.01 58.7521 106.297 59.1185 105.929 59.7171C105.467 60.458 105.464 61.3281 105.919 62.0429C106.422 62.8319 107.393 63.2852 108.336 63.1702Z" fill="white"/>
<path fill-rule="evenodd" clip-rule="evenodd" d="M60.2749 122.794C60.0702 123.147 59.6584 123.403 59.1981 123.459C58.6818 123.522 58.1535 123.277 57.8815 122.851C57.7259 122.607 57.6023 122.216 57.8976 121.743C58.0607 121.471 58.4649 121.293 58.9398 121.264C59.4826 121.234 60.002 121.409 60.2334 121.7C60.4584 121.983 60.4761 122.443 60.2749 122.794ZM56.9288 121.139C56.4669 121.88 56.463 122.75 56.919 123.465C57.4214 124.254 58.3927 124.707 59.3354 124.592C59.9301 124.52 60.4718 124.259 60.8719 123.868C61.0254 123.717 61.158 123.548 61.2647 123.363C61.6969 122.612 61.6405 121.636 61.1274 120.99C60.6628 120.404 59.7995 120.072 58.8752 120.124C58.0099 120.174 57.2957 120.54 56.9288 121.139Z" fill="white"/>
<path fill-rule="evenodd" clip-rule="evenodd" d="M70.6311 123.421C70.6556 123.802 70.4542 124.177 70.131 124.357C69.9518 124.456 69.6715 124.525 69.3474 124.296C69.1663 124.167 69.0544 123.868 69.0556 123.516C69.0569 123.157 69.1786 122.809 69.3597 122.632C69.381 122.611 69.403 122.593 69.4251 122.578C69.6283 122.435 69.9585 122.444 70.1927 122.599C70.4423 122.763 70.61 123.077 70.6311 123.421ZM68.7708 121.642C68.2455 122.01 67.9166 122.726 67.9142 123.511C67.9118 124.252 68.1932 124.877 68.6865 125.227C69.2992 125.661 70.0468 125.709 70.6852 125.354C70.8498 125.263 70.9977 125.151 71.1288 125.022C71.5661 124.594 71.8094 123.983 71.7707 123.35C71.727 122.645 71.3722 122.008 70.82 121.644C70.1974 121.235 69.354 121.233 68.7708 121.642Z" fill="white"/>
<path fill-rule="evenodd" clip-rule="evenodd" d="M103.324 105.002C103.61 104.517 104.243 104.246 104.884 104.025C105.311 103.878 105.751 103.765 106.188 103.647C106.048 103.738 105.913 103.841 105.789 103.964C105.443 104.309 105.242 104.728 105.065 105.129C104.61 106.158 104.411 107.577 104.529 108.751C104.481 108.817 104.438 108.887 104.395 108.958C103.832 108.251 103.426 107.423 103.229 106.553C103.078 105.887 103.109 105.365 103.324 105.002ZM110.324 102.005C110.824 101.642 111.39 101.232 111.981 101.169C112.674 101.09 113.409 101.505 113.972 101.871C114.124 101.97 114.298 102.094 114.445 102.231C113.927 102.263 113.299 102.433 112.533 102.858C112.307 102.984 112.105 103.144 111.886 103.28C111.827 103.238 111.76 103.203 111.684 103.184C110.866 102.974 110.02 102.899 109.176 102.928C109.543 102.614 109.913 102.301 110.324 102.005ZM116.97 102.105C117.918 102.342 118.849 102.674 119.739 103.087C120.03 103.223 120.354 103.388 120.522 103.616C120.712 103.878 120.742 104.275 120.746 104.666C120.757 105.835 120.583 106.995 120.23 108.114C120.046 108.696 119.806 109.273 119.558 109.843C119.575 109.754 119.604 109.665 119.616 109.576C119.667 109.212 119.706 108.734 119.561 108.254C119.315 107.437 118.558 106.829 117.704 106.706C117.6 105.589 117.267 104.491 116.682 103.513C116.508 103.223 116.276 102.905 115.947 102.654L115.949 102.637C115.924 102.359 115.818 102.125 115.685 101.91C116.121 101.921 116.564 102.003 116.97 102.105ZM119.967 112.945C119.84 113.435 119.591 113.894 119.363 114.277C118.52 115.703 117.537 116.733 116.44 117.339C116.265 117.437 116.06 117.539 115.87 117.557C115.701 117.574 115.493 117.529 115.29 117.487C114.386 117.298 113.596 117.087 113.023 116.662C113.693 116.193 114.21 115.625 114.545 114.988C114.938 114.978 115.333 114.959 115.729 114.907C116.101 114.858 116.533 114.778 116.925 114.549C117.312 114.32 117.589 113.987 117.831 113.66C118.132 113.251 118.384 112.841 118.613 112.429L118.619 112.43C119.031 112.43 119.451 112.25 119.774 111.922C119.89 111.806 119.97 111.673 120.053 111.543C120.092 112.021 120.084 112.498 119.967 112.945ZM111.235 118.694C110.938 118.768 110.622 118.84 110.319 118.842C109.992 118.845 109.64 118.774 109.299 118.702C108.789 118.598 108.262 118.49 107.886 118.217C107.55 117.972 107.334 117.587 107.151 117.134C107.368 117.429 107.626 117.696 107.981 117.873C108.302 118.031 108.639 118.09 108.973 118.09C109.377 118.09 109.777 118.005 110.145 117.908C110.85 117.72 111.425 117.516 111.935 117.284C112.277 117.618 112.681 117.855 113.103 118.041C112.496 118.301 111.875 118.531 111.235 118.694ZM113.393 108.926C113.358 109.018 113.322 109.103 113.283 109.18C113.1 108.865 112.856 108.582 112.601 108.314C112.406 108.11 112.178 107.93 111.948 107.75C111.596 107.476 111.291 107.238 111.194 106.941L111.176 106.87C111.262 106.853 111.342 106.821 111.412 106.77C111.568 106.728 111.736 106.706 111.914 106.732C112.227 106.778 112.554 106.927 112.888 107.174C113.138 107.359 113.453 107.654 113.532 108.002C113.586 108.24 113.542 108.536 113.393 108.926ZM108.972 107.183L108.977 107.161C109.021 107.021 109.074 106.921 109.134 106.864C109.191 106.81 109.292 106.762 109.435 106.723C109.614 106.672 109.803 106.668 109.99 106.67C109.968 106.862 109.983 107.07 110.056 107.291C110.262 107.921 110.76 108.309 111.199 108.652C111.382 108.796 111.568 108.937 111.723 109.1C111.85 109.233 111.968 109.371 112.074 109.511C111.962 109.497 111.854 109.479 111.734 109.474C111.565 109.466 111.395 109.466 111.226 109.467C110.93 109.474 110.651 109.471 110.396 109.423C109.895 109.331 109.437 109.024 109.17 108.6C108.907 108.183 108.835 107.654 108.972 107.183ZM105.343 109.659C105.592 109.155 106.141 108.779 106.591 108.506C106.959 108.285 107.342 108.087 107.731 107.907C107.771 108.364 107.904 108.813 108.15 109.202C108.59 109.901 109.346 110.409 110.172 110.561C110.541 110.63 110.892 110.632 111.232 110.625C111.382 110.625 111.532 110.624 111.681 110.63C112.117 110.649 112.426 110.742 112.6 110.91L112.679 110.961C112.661 111.205 112.617 111.551 112.456 111.665C112.37 111.727 112.189 111.761 112.067 111.786C110.7 112.062 109.298 112.19 107.897 112.168C107.314 112.159 106.707 112.12 106.22 111.889C105.396 111.499 104.969 110.416 105.343 109.659ZM112.119 115.873C111.527 116.245 110.82 116.527 109.829 116.791C109.377 116.912 108.868 117.011 108.525 116.841C108.262 116.711 108.057 116.4 107.874 116.082C107.356 115.178 106.957 114.22 106.679 113.226C107.08 113.296 107.485 113.32 107.879 113.326C107.984 113.327 108.091 113.329 108.198 113.329C108.263 113.825 108.594 114.269 109.005 114.515C109.503 114.812 110.057 114.87 110.581 114.903C111.424 114.955 112.27 114.972 113.114 114.986C112.795 115.368 112.432 115.679 112.119 115.873ZM116.991 110.738C117.426 109.849 117.667 108.883 117.729 107.907C118.046 108.02 118.321 108.269 118.415 108.579C118.497 108.85 118.467 109.171 118.433 109.42C118.268 110.596 117.738 111.795 116.86 112.985C116.704 113.196 116.519 113.432 116.305 113.558C116.101 113.678 115.819 113.728 115.57 113.76C114.807 113.859 113.999 113.848 113.218 113.831C112.365 113.816 111.511 113.801 110.659 113.747C110.269 113.722 109.897 113.687 109.632 113.528C109.525 113.464 109.455 113.365 109.414 113.268C110.387 113.212 111.357 113.112 112.309 112.92C112.589 112.864 112.885 112.794 113.158 112.603C113.58 112.305 113.738 111.863 113.811 111.466L113.967 111.539C114.269 111.677 114.792 111.921 115.353 111.921C115.617 111.921 115.889 111.867 116.149 111.724C116.58 111.488 116.816 111.094 116.991 110.738ZM115.184 103.532C115.374 103.66 115.525 103.888 115.649 104.094C116.759 105.948 116.859 108.305 115.911 110.242C115.823 110.422 115.703 110.639 115.561 110.715C115.318 110.854 114.857 110.667 114.481 110.494L113.971 110.257C114.187 110.017 114.369 109.708 114.515 109.327C114.66 108.943 114.837 108.363 114.699 107.753C114.573 107.198 114.208 106.693 113.613 106.255C113.119 105.887 112.606 105.662 112.094 105.588C111.713 105.53 111.342 105.568 111.001 105.676C110.905 105.644 110.813 105.61 110.714 105.587C111.464 104.943 112.256 104.348 113.128 103.862C113.651 103.573 114.613 103.141 115.184 103.532ZM106.646 104.77C106.947 104.471 107.444 104.331 107.792 104.253C108.704 104.044 109.654 104.014 110.581 104.148C110.017 104.581 109.479 105.045 108.979 105.548C108.936 105.592 108.909 105.644 108.882 105.696C108.655 105.784 108.455 105.889 108.301 106.033C108.156 106.171 108.046 106.351 107.952 106.552C107.265 106.821 106.593 107.14 105.959 107.524C105.877 107.573 105.789 107.633 105.703 107.689C105.748 106.945 105.902 106.175 106.164 105.585C106.302 105.271 106.443 104.973 106.646 104.77ZM103.555 113.775C103.365 112.858 103.436 111.872 103.506 110.918L103.587 109.816C103.722 109.976 103.866 110.127 104.014 110.275C104.014 111.211 104.504 112.151 105.325 112.706C105.542 113.72 105.869 114.704 106.31 115.643C106.221 115.636 106.132 115.626 106.045 115.62C105.405 115.569 104.8 115.522 104.366 115.225C103.875 114.888 103.654 114.25 103.555 113.775ZM102.526 108.125L102.507 108.189L102.314 110.837C102.239 111.867 102.161 112.933 102.384 114.004C102.586 114.98 103.033 115.729 103.676 116.17C104.317 116.61 105.066 116.7 105.754 116.756C105.991 117.515 106.319 118.523 107.169 119.141C107.755 119.569 108.473 119.717 109.051 119.836C109.426 119.912 109.85 120 110.293 120H110.332C110.763 119.995 111.167 119.908 111.538 119.813C112.564 119.553 113.561 119.175 114.502 118.691C114.577 118.652 114.638 118.6 114.688 118.54C114.804 118.566 114.929 118.595 115.037 118.618C115.253 118.664 115.511 118.719 115.792 118.719C115.856 118.719 115.921 118.715 115.987 118.71C116.402 118.67 116.764 118.494 117.033 118.346C118.317 117.634 119.449 116.46 120.399 114.854C120.652 114.427 120.962 113.858 121.126 113.228C121.442 112.016 121.191 110.79 120.97 109.709L120.938 109.636C121.096 109.248 121.245 108.855 121.372 108.453C121.761 107.221 121.953 105.944 121.94 104.655C121.935 104.104 121.879 103.471 121.496 102.947C121.181 102.516 120.714 102.258 120.257 102.045C119.298 101.597 118.292 101.24 117.27 100.983C116.461 100.781 115.516 100.624 114.588 100.88C113.861 100.412 112.905 99.8976 111.85 100.018C110.935 100.115 110.2 100.649 109.609 101.077C109.202 101.372 108.835 101.678 108.478 101.982C107.119 102.173 105.774 102.489 104.483 102.935C103.667 103.215 102.768 103.612 102.286 104.427C101.921 105.048 101.845 105.847 102.062 106.802C102.166 107.257 102.332 107.696 102.526 108.125Z" fill="white"/>
</svg>
