<svg width="14" height="13" viewBox="0 0 14 13" fill="none" xmlns="http://www.w3.org/2000/svg">
<path d="M5.88002 11.715C5.973 11.6221 6.04675 11.5118 6.09708 11.3904C6.1474 11.269 6.17331 11.1389 6.17331 11.0075C6.17331 10.8761 6.1474 10.746 6.09708 10.6246C6.04675 10.5032 5.973 10.3929 5.88002 10.3L2.58802 7.007L13 7C13.2652 7 13.5196 6.89464 13.7071 6.7071C13.8947 6.51957 14 6.26521 14 6C14 5.73478 13.8947 5.48043 13.7071 5.29289C13.5196 5.10535 13.2652 5 13 5L2.58602 5.007L5.88002 1.715C6.06766 1.52749 6.17313 1.27312 6.17322 1.00785C6.17332 0.74258 6.06803 0.488137 5.88052 0.300496C5.69301 0.112855 5.43864 0.00738753 5.17337 0.00729376C4.9081 0.00719999 4.65366 0.112488 4.46602 0.299996L0.880019 3.886C0.60139 4.16458 0.380366 4.49532 0.22957 4.85933C0.078774 5.22334 0.00115967 5.61349 0.00115967 6.0075C0.00115967 6.4015 0.078774 6.79165 0.22957 7.15566C0.380366 7.51967 0.60139 7.85041 0.880019 8.129L4.46602 11.715C4.65355 11.9025 4.90786 12.0078 5.17302 12.0078C5.43818 12.0078 5.69249 11.9025 5.88002 11.715Z" fill="white"/>
</svg>
